<svg width="128" height="128" viewBox="0 0 128 128" fill="none" xmlns="http://www.w3.org/2000/svg">
<path d="M50.67 73.4H54.7L47.36 52.58H42.7L35.37 73.4H39.4L41.12 68.27H48.95L50.68 73.4H50.67ZM42.13 65.23L44.94 56.84H45.1L47.92 65.23H42.13ZM58.67 64.24V73.39H54.99V57.77H58.51V60.42H58.69C59.05 59.55 59.62 58.85 60.41 58.34C61.2 57.82 62.18 57.57 63.34 57.57C64.42 57.57 65.36 57.8 66.16 58.26C66.96 58.72 67.59 59.39 68.03 60.26C68.47 61.13 68.69 62.2 68.69 63.44V73.38H65.01V64C65.01 62.96 64.74 62.14 64.2 61.55C63.66 60.96 62.92 60.67 61.97 60.67C61.33 60.67 60.75 60.81 60.26 61.09C59.76 61.37 59.37 61.78 59.09 62.31C58.81 62.84 58.67 63.48 58.67 64.23V64.24ZM76.81 79.57C75.49 79.57 74.35 79.39 73.4 79.04C72.45 78.69 71.69 78.21 71.11 77.61C70.53 77.01 70.13 76.35 69.91 75.63L73.22 74.83C73.37 75.14 73.59 75.44 73.87 75.74C74.15 76.04 74.54 76.29 75.02 76.49C75.5 76.69 76.12 76.79 76.86 76.79C77.9 76.79 78.77 76.54 79.45 76.03C80.13 75.52 80.48 74.7 80.48 73.54V70.58H80.3C80.11 70.96 79.83 71.35 79.47 71.75C79.11 72.15 78.63 72.49 78.04 72.76C77.45 73.03 76.7 73.17 75.81 73.17C74.61 73.17 73.52 72.89 72.55 72.32C71.58 71.75 70.8 70.91 70.23 69.78C69.66 68.65 69.37 67.24 69.37 65.53C69.37 63.82 69.66 62.37 70.23 61.18C70.8 60 71.58 59.1 72.55 58.49C73.53 57.88 74.61 57.57 75.81 57.57C76.73 57.57 77.48 57.72 78.07 58.03C78.66 58.34 79.14 58.71 79.49 59.14C79.84 59.57 80.11 59.98 80.29 60.36H80.49V57.78H84.12V73.65C84.12 74.99 83.8 76.09 83.16 76.96C82.52 77.83 81.65 78.49 80.55 78.92C79.44 79.35 78.19 79.57 76.79 79.57H76.81ZM76.84 70.28C77.62 70.28 78.28 70.09 78.83 69.71C79.38 69.33 79.8 68.78 80.08 68.07C80.36 67.36 80.51 66.5 80.51 65.51C80.51 64.52 80.37 63.67 80.09 62.93C79.81 62.19 79.4 61.62 78.85 61.21C78.3 60.8 77.63 60.59 76.84 60.59C76.05 60.59 75.34 60.8 74.79 61.23C74.24 61.66 73.83 62.24 73.55 62.98C73.27 63.72 73.13 64.56 73.13 65.51C73.13 66.46 73.27 67.3 73.55 68.02C73.83 68.74 74.25 69.29 74.8 69.69C75.35 70.09 76.03 70.28 76.84 70.28ZM95.3 66.82V57.77H98.98V73.39H95.41V70.61H95.25C94.8983 71.4818 94.2963 72.2299 93.52 72.76C92.72 73.32 91.73 73.59 90.56 73.59C89.54 73.59 88.63 73.36 87.85 72.9C87.07 72.44 86.46 71.77 86.01 70.9C85.57 70.02 85.35 68.96 85.35 67.71V57.77H89.03V67.15C89.03 68.14 89.3 68.93 89.84 69.51C90.38 70.09 91.09 70.38 91.98 70.38C92.52 70.38 93.05 70.25 93.56 69.98C94.07 69.72 94.49 69.32 94.82 68.8C95.15 68.27 95.31 67.62 95.31 66.82H95.3ZM103.87 52.56V73.38H100.19V52.56H103.87ZM109.71 73.7C108.72 73.7 107.83 73.52 107.04 73.17C106.25 72.81 105.63 72.29 105.17 71.59C104.71 70.89 104.48 70.03 104.48 69.01C104.48 68.13 104.64 67.4 104.97 66.82C105.3 66.24 105.74 65.78 106.3 65.44C106.86 65.09 107.5 64.83 108.21 64.65C108.92 64.47 109.65 64.34 110.41 64.26C111.33 64.17 112.07 64.08 112.64 64C113.21 63.92 113.62 63.8 113.89 63.63C114.15 63.46 114.28 63.2 114.28 62.85V62.79C114.28 62.02 114.05 61.43 113.6 61.01C113.15 60.59 112.49 60.38 111.64 60.38C110.74 60.38 110.02 60.58 109.5 60.97C108.97 61.36 108.62 61.83 108.44 62.36L105 61.87C105.27 60.92 105.72 60.13 106.34 59.49C106.96 58.85 107.73 58.37 108.63 58.05C109.53 57.73 110.53 57.57 111.62 57.57C112.37 57.57 113.12 57.66 113.87 57.83C114.62 58.01 115.3 58.3 115.91 58.7C116.53 59.1 117.02 59.65 117.4 60.34C117.78 61.03 117.96 61.9 117.96 62.93V73.38H114.42V71.23H114.3C114.08 71.66 113.76 72.07 113.36 72.45C112.96 72.83 112.45 73.13 111.84 73.35C111.23 73.57 110.52 73.69 109.71 73.69V73.7ZM110.67 71C111.41 71 112.05 70.85 112.59 70.56C113.13 70.27 113.55 69.87 113.85 69.39C114.14 68.9 114.29 68.37 114.29 67.79V65.95C114.17 66.04 113.98 66.13 113.71 66.21C113.44 66.29 113.13 66.36 112.79 66.42C112.45 66.48 112.12 66.54 111.78 66.58C111.45 66.63 111.16 66.67 110.92 66.7C110.37 66.77 109.88 66.9 109.45 67.07C109.02 67.24 108.67 67.48 108.42 67.78C108.17 68.08 108.04 68.47 108.04 68.94C108.04 69.62 108.29 70.13 108.78 70.48C109.27 70.83 109.91 71 110.67 71ZM119.09 73.39V57.77H122.66V60.37H122.82C123.1 59.47 123.59 58.77 124.29 58.28C124.98 57.79 125.78 57.54 126.67 57.54C126.87 57.54 127.1 57.54 127.36 57.57C127.61 57.59 127.83 57.61 128 57.65V61.04C127.84 60.99 127.6 60.94 127.26 60.89C126.92 60.85 126.6 60.82 126.29 60.82C125.62 60.82 125.02 60.96 124.48 61.25C123.95 61.54 123.53 61.94 123.22 62.44C122.92 62.95 122.76 63.53 122.76 64.2V73.38H119.08L119.09 73.39ZM28.95 53.53L27.91 69.94L17.91 48.42L28.95 53.53ZM22.03 74.76L14.48 79.07L6.93 74.76L8.47 71.04H20.5L22.04 74.76H22.03ZM14.48 56.59L18.44 66.21H10.53L14.49 56.59H14.48ZM1.04 69.94L0 53.53L11.04 48.42L1.04 69.94Z" fill="#F8F8F8"/>
</svg>
