<svg width="76" height="77" viewBox="0 0 76 77" fill="none" xmlns="http://www.w3.org/2000/svg">
<path d="M9.1875 61.2031C9.1875 64.4882 11.2715 67.2656 13.7344 67.2656C14.2612 67.2484 14.779 67.1243 15.2565 66.9009C15.7339 66.6775 16.161 66.3594 16.5118 65.966C17.3458 65.0947 18.4919 64.5905 19.6977 64.5642C20.9036 64.5379 22.0705 64.9917 22.9418 65.8258C23.8131 66.6599 24.3173 67.8059 24.3436 69.0118C24.3699 70.2176 23.9161 71.3846 23.082 72.2558C21.8857 73.5406 20.4394 74.5674 18.832 75.273C17.2246 75.9787 15.4899 76.3484 13.7344 76.3594C6.21309 76.3594 0.09375 69.5391 0.09375 61.2031C0.09375 52.8672 6.21309 46.0469 13.7344 46.0469C15.4899 46.0579 17.2246 46.4276 18.832 47.1332C20.4394 47.8389 21.8857 48.8656 23.082 50.1504C23.9161 51.0217 24.3699 52.1886 24.3436 53.3945C24.3173 54.6004 23.8131 55.7464 22.9418 56.5805C22.0705 57.4146 20.9036 57.8684 19.6977 57.8421C18.4919 57.8158 17.3458 57.3115 16.5118 56.4403C16.161 56.0468 15.7339 55.7288 15.2565 55.5053C14.779 55.2819 14.2612 55.1579 13.7344 55.1406C11.2715 55.1406 9.1875 57.9104 9.1875 61.2031ZM46.1347 59.0396C44.1946 57.7323 41.8454 57.0541 39.769 56.4554C38.7536 56.1805 37.7532 55.853 36.7719 55.4741C37.7002 55.027 40.4511 54.9815 42.8609 55.5991C44.0271 55.9071 45.2679 55.7392 46.3103 55.1324C47.3528 54.5255 48.1114 53.5295 48.4195 52.3632C48.7275 51.197 48.5596 49.9562 47.9527 48.9138C47.3459 47.8714 46.3498 47.1127 45.1836 46.8047C43.6916 46.4366 42.1701 46.2008 40.6367 46.0999C36.8742 45.8498 33.8164 46.5091 31.5051 48.0589C30.3782 48.8154 29.4313 49.8102 28.7314 50.9731C28.0314 52.1359 27.5956 53.4383 27.4546 54.7882C27.0378 58.0999 28.398 60.953 31.2853 62.8173C33.0965 63.9881 35.2108 64.5981 37.2531 65.1892C38.3898 65.5264 40.2616 66.0607 40.9967 66.5268C40.9837 66.6199 40.9568 66.7105 40.9171 66.7958C40.398 67.3831 37.2872 67.474 34.7068 66.773C34.1281 66.5997 33.5206 66.5434 32.9198 66.6075C32.319 66.6716 31.7371 66.8548 31.2079 67.1463C30.6788 67.4379 30.213 67.832 29.8379 68.3056C29.4628 68.7792 29.1858 69.3228 29.0231 69.9046C28.8605 70.4865 28.8154 71.0949 28.8906 71.6944C28.9658 72.2939 29.1596 72.8724 29.4609 73.3961C29.7622 73.9198 30.1648 74.3782 30.6453 74.7445C31.1257 75.1108 31.6743 75.3777 32.2591 75.5296C34.2624 76.0686 36.3267 76.3475 38.4012 76.3594C40.8489 76.3594 43.6036 75.9161 45.877 74.408C47.0281 73.6469 47.9969 72.6408 48.7142 71.4618C49.4314 70.2828 49.8794 68.9599 50.026 67.5877C50.4883 64.0563 49.0977 61.025 46.1347 59.032V59.0396ZM71.9003 59.0396C69.9603 57.7323 67.6111 57.0541 65.5347 56.4554C64.5193 56.1805 63.5189 55.853 62.5375 55.4741C63.4658 55.027 66.2167 54.9815 68.6265 55.5991C69.7927 55.9071 71.0335 55.7392 72.076 55.1324C73.1184 54.5255 73.8771 53.5295 74.1851 52.3632C74.4931 51.197 74.3252 49.9562 73.7184 48.9138C73.1115 47.8714 72.1154 47.1127 70.9492 46.8047C69.4573 46.4366 67.9357 46.2008 66.4024 46.0999C62.6398 45.8498 59.582 46.5091 57.2707 48.0589C56.1438 48.8154 55.1969 49.8102 54.497 50.9731C53.7971 52.1359 53.3612 53.4383 53.2202 54.7882C52.8034 58.0999 54.1637 60.953 57.0509 62.8173C58.8621 63.9881 60.9764 64.5981 63.0187 65.1892C64.1554 65.5264 66.0272 66.0607 66.7623 66.5268C66.7493 66.6199 66.7225 66.7105 66.6827 66.7958C66.1636 67.3831 63.0528 67.474 60.4725 66.773C59.8937 66.5997 59.2862 66.5434 58.6854 66.6075C58.0847 66.6716 57.5027 66.8548 56.9736 67.1463C56.4444 67.4379 55.9786 67.832 55.6035 68.3056C55.2284 68.7792 54.9514 69.3228 54.7888 69.9046C54.6261 70.4865 54.581 71.0949 54.6562 71.6944C54.7314 72.2939 54.9253 72.8724 55.2265 73.3961C55.5278 73.9198 55.9304 74.3782 56.4109 74.7445C56.8913 75.1108 57.44 75.3777 58.0247 75.5296C60.028 76.0686 62.0923 76.3475 64.1668 76.3594C66.6145 76.3594 69.3692 75.9161 71.6426 74.408C72.7938 73.6469 73.7626 72.6408 74.4798 71.4618C75.197 70.2828 75.645 68.9599 75.7916 67.5877C76.2539 64.0563 74.8633 61.025 71.9003 59.032V59.0396ZM4.64063 33.9219V8.15625C4.64063 6.14641 5.43903 4.21888 6.86021 2.79771C8.28138 1.37653 10.2089 0.578126 12.2188 0.578126H48.5938C49.191 0.577657 49.7826 0.694869 50.3345 0.923068C50.8865 1.15127 51.3881 1.48598 51.8107 1.90809L73.0294 23.1268C73.4515 23.5494 73.7862 24.051 74.0144 24.603C74.2426 25.1549 74.3598 25.7465 74.3594 26.3438V33.9219C74.3594 35.1278 73.8803 36.2843 73.0276 37.137C72.1749 37.9897 71.0184 38.4688 69.8125 38.4688C68.6066 38.4688 67.4501 37.9897 66.5974 37.137C65.7447 36.2843 65.2656 35.1278 65.2656 33.9219V32.4062H47.0781C45.8722 32.4062 44.7157 31.9272 43.863 31.0745C43.0103 30.2218 42.5313 29.0653 42.5313 27.8594V9.67188H13.7344V33.9219C13.7344 35.1278 13.2553 36.2843 12.4026 37.137C11.5499 37.9897 10.3934 38.4688 9.1875 38.4688C7.98159 38.4688 6.82508 37.9897 5.97237 37.137C5.11967 36.2843 4.64063 35.1278 4.64063 33.9219ZM51.625 23.3125H60.3398L51.625 14.5977V23.3125Z" fill="#699BF7"/>
</svg>
