<svg width="33" height="35" viewBox="0 0 33 35" fill="none" xmlns="http://www.w3.org/2000/svg">
<path d="M25.2656 0H7.73438C3.4628 0 0 3.58908 0 8.01643V26.187C0 30.6144 3.4628 34.2035 7.73438 34.2035H25.2656C29.5372 34.2035 33 30.6144 33 26.187V8.01643C33 3.58908 29.5372 0 25.2656 0Z" fill="url(#paint0_radial_15_58)"/>
<path d="M25.2656 0H7.73438C3.4628 0 0 3.58908 0 8.01643V26.187C0 30.6144 3.4628 34.2035 7.73438 34.2035H25.2656C29.5372 34.2035 33 30.6144 33 26.187V8.01643C33 3.58908 29.5372 0 25.2656 0Z" fill="url(#paint1_radial_15_58)"/>
<path d="M16.5012 3.74097C13.0003 3.74097 12.5609 3.75687 11.186 3.82167C9.81363 3.88687 8.87687 4.11199 8.05729 4.4424C7.20934 4.78364 6.49017 5.24017 5.77371 5.98303C5.05661 6.72575 4.61613 7.47115 4.28588 8.34961C3.96619 9.19936 3.74872 10.1707 3.68698 11.5924C3.62549 13.0176 3.60938 13.4732 3.60938 17.1018C3.60938 20.7305 3.62484 21.1845 3.68723 22.6095C3.7504 24.0319 3.96761 25.0028 4.28613 25.8523C4.61562 26.7312 5.05609 27.4766 5.77281 28.2191C6.48914 28.9624 7.20831 29.42 8.05561 29.7612C8.87584 30.0917 9.81273 30.3168 11.1848 30.382C12.5599 30.4468 12.9989 30.4627 16.4996 30.4627C20.0008 30.4627 20.4389 30.4468 21.8138 30.382C23.1861 30.3168 24.1239 30.0917 24.9441 29.7612C25.7917 29.42 26.5098 28.9624 27.226 28.2191C27.9431 27.4766 28.3835 26.7312 28.7139 25.8527C29.0307 25.0028 29.2483 24.0316 29.3128 22.6098C29.3745 21.1847 29.3906 20.7305 29.3906 17.1018C29.3906 13.4732 29.3745 13.0179 29.3128 11.5927C29.2483 10.1703 29.0307 9.19949 28.7139 8.35002C28.3835 7.47115 27.9431 6.72575 27.226 5.98303C26.5091 5.23991 25.7919 4.78337 24.9434 4.44254C24.1216 4.11199 23.1843 3.88673 21.812 3.82167C20.4369 3.75687 19.9992 3.74097 16.4972 3.74097H16.5012ZM15.3447 6.1487C15.688 6.14817 16.071 6.1487 16.5012 6.1487C19.9431 6.1487 20.3509 6.16153 21.7101 6.22553C22.967 6.28512 23.6491 6.50276 24.1035 6.68567C24.7051 6.92777 25.134 7.21729 25.5849 7.68505C26.0361 8.15268 26.3153 8.59799 26.5495 9.22154C26.726 9.69183 26.9363 10.3989 26.9935 11.7016C27.0552 13.11 27.0686 13.533 27.0686 17.0988C27.0686 20.6645 27.0552 21.0876 26.9935 22.4959C26.936 23.7986 26.726 24.5057 26.5495 24.9761C26.316 25.5996 26.0361 26.0436 25.5849 26.511C25.1338 26.9786 24.7054 27.268 24.1035 27.5102C23.6497 27.6939 22.967 27.9111 21.7101 27.9706C20.3512 28.0346 19.9431 28.0485 16.5012 28.0485C13.0591 28.0485 12.6511 28.0346 11.2923 27.9706C10.0355 27.9105 9.35331 27.6929 8.89853 27.51C8.29705 27.2677 7.86728 26.9783 7.41611 26.5107C6.96493 26.0431 6.68572 25.5988 6.4515 24.975C6.27503 24.5046 6.06478 23.7976 6.00755 22.4949C5.9458 21.0864 5.93343 20.6634 5.93343 17.0954C5.93343 13.5276 5.9458 13.1067 6.00755 11.6982C6.06504 10.3955 6.27503 9.68849 6.4515 9.21753C6.68521 8.59398 6.96493 8.14867 7.41623 7.68104C7.86741 7.21342 8.29705 6.92389 8.89866 6.68126C9.35305 6.49755 10.0355 6.28044 11.2923 6.22058C12.4815 6.16487 12.9423 6.14817 15.3447 6.14536V6.1487ZM23.3822 8.36712C22.5282 8.36712 21.8353 9.08459 21.8353 9.96987C21.8353 10.855 22.5282 11.5732 23.3822 11.5732C24.2362 11.5732 24.9291 10.855 24.9291 9.96987C24.9291 9.08472 24.2362 8.36658 23.3822 8.36658V8.36712ZM16.5012 10.2404C12.8454 10.2404 9.88131 13.3126 9.88131 17.1018C9.88131 20.8911 12.8454 23.9618 16.5012 23.9618C20.1571 23.9618 23.1201 20.8911 23.1201 17.1018C23.1201 13.3127 20.1568 10.2404 16.5009 10.2404H16.5012ZM16.5012 12.6482C18.8742 12.6482 20.7981 14.642 20.7981 17.1018C20.7981 19.5614 18.8742 21.5555 16.5012 21.5555C14.128 21.5555 12.2043 19.5614 12.2043 17.1018C12.2043 14.642 14.128 12.6482 16.5012 12.6482Z" fill="white"/>
<defs>
<radialGradient id="paint0_radial_15_58" cx="0" cy="0" r="1" gradientUnits="userSpaceOnUse" gradientTransform="translate(8.76562 36.8378) rotate(-90) scale(33.8982 30.4187)">
<stop stop-color="#FFDD55"/>
<stop offset="0.1" stop-color="#FFDD55"/>
<stop offset="0.5" stop-color="#FF543E"/>
<stop offset="1" stop-color="#C837AB"/>
</radialGradient>
<radialGradient id="paint1_radial_15_58" cx="0" cy="0" r="1" gradientUnits="userSpaceOnUse" gradientTransform="translate(-5.52763 2.46385) rotate(79.0695) scale(15.1325 60.3425)">
<stop stop-color="#3771C8"/>
<stop offset="0.128" stop-color="#3771C8"/>
<stop offset="1" stop-color="#6600FF" stop-opacity="0"/>
</radialGradient>
</defs>
</svg>
