<svg width="33" height="34" viewBox="0 0 33 34" fill="none" xmlns="http://www.w3.org/2000/svg">
<g clip-path="url(#clip0_9_2)">
<path d="M25.2656 0H7.73438C3.4628 0 0 3.56773 0 7.96875V26.0312C0 30.4323 3.4628 34 7.73438 34H25.2656C29.5372 34 33 30.4323 33 26.0312V7.96875C33 3.56773 29.5372 0 25.2656 0Z" fill="white"/>
<path d="M25.2656 0H7.73438C3.4628 0 0 3.56773 0 7.96875V26.0312C0 30.4323 3.4628 34 7.73438 34H25.2656C29.5372 34 33 30.4323 33 26.0312V7.96875C33 3.56773 29.5372 0 25.2656 0Z" fill="#0A66C2"/>
<path d="M23.8109 28.9113H27.584C27.7207 28.9113 27.8519 28.8553 27.9486 28.7557C28.0453 28.6561 28.0996 28.521 28.0996 28.3802L28.1016 20.1668C28.1016 15.8739 27.2037 12.5742 22.3346 12.5742C20.4836 12.5032 18.7381 13.4863 17.7962 15.1279C17.7915 15.1358 17.7845 15.1421 17.7762 15.1455C17.7678 15.149 17.7586 15.1496 17.7499 15.1472C17.7412 15.1447 17.7336 15.1395 17.728 15.1321C17.7225 15.1248 17.7195 15.1158 17.7195 15.1065V13.5017C17.7195 13.3608 17.6651 13.2257 17.5684 13.1261C17.4717 13.0264 17.3406 12.9705 17.2038 12.9705H13.6232C13.4864 12.9705 13.3553 13.0264 13.2586 13.1261C13.1619 13.2257 13.1076 13.3608 13.1076 13.5017V28.3794C13.1076 28.5203 13.1619 28.6554 13.2586 28.755C13.3553 28.8547 13.4864 28.9106 13.6232 28.9106H17.396C17.5328 28.9106 17.6639 28.8547 17.7606 28.755C17.8573 28.6554 17.9117 28.5203 17.9117 28.3794V21.0251C17.9117 18.9457 18.2945 16.9319 20.7967 16.9319C23.2633 16.9319 23.2953 19.3113 23.2953 21.1598V28.38C23.2953 28.5209 23.3496 28.6561 23.4463 28.7557C23.543 28.8553 23.6742 28.9113 23.8109 28.9113ZM4.89844 7.91934C4.89844 9.49503 6.15746 10.7915 7.68694 10.7915C9.21602 10.7914 10.4743 9.4941 10.4743 7.91868C10.474 6.34326 9.21564 5.04688 7.68642 5.04688C6.15682 5.04688 4.89844 6.34366 4.89844 7.91934ZM5.7955 28.9113H9.57335C9.7101 28.9113 9.84126 28.8553 9.93795 28.7557C10.0347 28.6561 10.089 28.5209 10.089 28.38V13.5017C10.089 13.3608 10.0347 13.2257 9.93795 13.1261C9.84126 13.0264 9.7101 12.9705 9.57335 12.9705H5.7955C5.65874 12.9705 5.52759 13.0264 5.43089 13.1261C5.3342 13.2257 5.27987 13.3608 5.27987 13.5017V28.38C5.27987 28.5209 5.3342 28.6561 5.43089 28.7557C5.52759 28.8553 5.65874 28.9113 5.7955 28.9113Z" fill="white"/>
</g>
<defs>
<clipPath id="clip0_9_2">
<rect width="33" height="34" fill="white"/>
</clipPath>
</defs>
</svg>
