<svg width="128" height="128" viewBox="0 0 128 128" fill="none" xmlns="http://www.w3.org/2000/svg">
<path d="M0 51.098V76.86H4.422V56.604L20.73 76.87H48.424V72.757H30.553V65.956H44.923V61.843H30.553V55.222H48.423V51.106H26.13V55.222H26.132V76.68L5.527 51.098H0ZM85.09 51.108V55.223H94.12V76.873H98.54V55.223H107.387V51.107H85.09V51.108ZM53.768 51.119L74.498 76.883H80.301L69.936 64.01L80.286 51.139L74.496 51.149L67.037 60.41L59.557 51.12H53.767L53.768 51.119ZM123.926 65.717C123.165 65.717 122.481 65.845 121.875 66.111C121.272 66.3744 120.797 66.7437 120.449 67.219C120.099 67.6957 119.924 68.2504 119.924 68.883C119.923 69.6524 120.183 70.268 120.704 70.73C121.222 71.194 121.93 71.5394 122.828 71.766L124.068 72.078C124.418 72.1628 124.761 72.2745 125.094 72.412C125.353 72.5139 125.586 72.6712 125.777 72.873C125.943 73.0666 126.032 73.315 126.025 73.57C126.028 73.8626 125.927 74.1467 125.742 74.373C125.541 74.6159 125.278 74.8006 124.982 74.908C124.62 75.0419 124.236 75.1071 123.85 75.1C123.47 75.1061 123.092 75.0445 122.734 74.918C122.422 74.8057 122.145 74.6137 121.93 74.361C121.718 74.095 121.595 73.7695 121.578 73.43H119.637C119.664 74.1414 119.852 74.7454 120.203 75.242C120.729 75.987 121.039 76.115 121.663 76.372C122.283 76.632 123.02 76.762 123.865 76.762C124.74 76.7607 125.484 76.6274 126.098 76.362C126.715 76.092 127.186 75.7194 127.512 75.244C127.839 74.765 128 74.216 128 73.586C127.999 73.1194 127.911 72.7137 127.734 72.369C127.56 72.0254 127.315 71.7229 127.014 71.482C126.702 71.2318 126.356 71.0274 125.986 70.875C125.602 70.7114 125.203 70.5826 124.796 70.49L123.776 70.24C123.551 70.1861 123.328 70.121 123.109 70.045C122.899 69.9739 122.699 69.8783 122.512 69.76C122.338 69.6561 122.191 69.513 122.082 69.342C121.973 69.1685 121.918 68.9667 121.924 68.762C121.924 68.5036 122.008 68.2522 122.162 68.045C122.318 67.835 122.547 67.669 122.84 67.545C123.177 67.4163 123.535 67.3538 123.896 67.361C124.481 67.3604 124.958 67.488 125.326 67.744C125.504 67.8638 125.652 68.0222 125.76 68.2075C125.868 68.3929 125.933 68.6002 125.949 68.814H127.849C127.847 68.2384 127.668 67.6772 127.336 67.207C127.003 66.7404 126.544 66.375 125.959 66.111C125.376 65.847 124.698 65.7157 123.926 65.717ZM115.928 65.861V73.411C115.925 73.789 115.866 74.107 115.752 74.365C115.649 74.6082 115.472 74.8127 115.246 74.949C115.027 75.0824 114.759 75.149 114.443 75.149C114.154 75.149 113.897 75.0924 113.672 74.979C113.455 74.8725 113.274 74.7054 113.15 74.498C113.02 74.2694 112.953 74.0108 112.955 73.748H110.992C110.991 74.4094 111.14 74.9614 111.439 75.404C111.737 75.8479 112.158 76.196 112.65 76.406C113.193 76.6391 113.779 76.755 114.37 76.746C115.068 76.746 115.68 76.6127 116.205 76.346C116.719 76.0906 117.149 75.6915 117.441 75.197C117.734 74.699 117.884 74.1034 117.889 73.41V65.861H115.928ZM62.596 65.92L53.752 76.902H59.557L65.494 69.522L62.596 65.92ZM108.381 74.418C108.057 74.418 107.78 74.53 107.551 74.754C107.44 74.8566 107.352 74.9816 107.292 75.1207C107.233 75.2598 107.204 75.4098 107.207 75.561C107.203 75.714 107.232 75.866 107.291 76.007C107.35 76.148 107.439 76.2748 107.551 76.379C107.78 76.6037 108.057 76.7157 108.381 76.715C108.583 76.7167 108.782 76.6627 108.955 76.559C109.13 76.4586 109.278 76.3155 109.383 76.143C109.492 75.9684 109.549 75.7667 109.549 75.561C109.549 75.4094 109.517 75.2594 109.456 75.1205C109.395 74.9816 109.306 74.8569 109.195 74.754C109.089 74.6464 108.962 74.5612 108.822 74.5035C108.682 74.4457 108.532 74.4167 108.381 74.418Z" fill="white"/>
</svg>
