<svg width="160" height="128" viewBox="0 0 160 128" fill="none" xmlns="http://www.w3.org/2000/svg">
<path d="M80 26.125C122.85 26.125 155.8 44.175 155.8 64C155.8 83.825 122.825 101.875 80 101.875C37.15 101.875 4.2 83.825 4.2 64C4.2 44.175 37.175 26.125 80 26.125ZM80 21.925C35.825 21.925 0 40.75 0 64C0 87.25 35.825 106.075 80 106.075C124.175 106.075 160 87.25 160 64C160 40.75 124.175 21.925 80 21.925ZM54.55 60.625C52.575 70.75 45.6 69.7 37.025 69.7L40.45 52.05C49.95 52.05 56.4 51.025 54.55 60.625ZM24.35 87.575H33.525L35.7 76.375C45.975 76.375 52.35 77.125 58.25 71.6C64.775 65.6 66.475 54.925 61.825 49.575C59.4 46.775 55.5 45.4 50.2 45.4H32.525L24.35 87.575ZM70.775 34.175H79.9L77.725 45.375C85.6 45.375 92.9 44.8 96.425 48.05C100.125 51.45 98.35 55.8 94.35 76.325H85.1C88.95 56.475 89.675 54.825 88.275 53.325C86.925 51.875 83.85 52.175 76.425 52.175L71.725 76.325H62.6L70.775 34.175ZM126.25 60.625C124.25 70.9 117.075 69.7 108.725 69.7L112.15 52.05C121.7 52.05 128.1 51.025 126.25 60.625ZM96.05 87.575H105.25L107.425 76.375C118.225 76.375 124.2 77 129.975 71.6C136.5 65.6 138.2 54.925 133.55 49.575C131.125 46.775 127.225 45.4 121.925 45.4H104.25L96.05 87.575Z" fill="#9747FF"/>
</svg>
