<svg width="117" height="29" viewBox="0 0 117 29" fill="none" xmlns="http://www.w3.org/2000/svg">
<g clip-path="url(#clip0_9_123)">
<path d="M3.19922 0H113.801C115.568 0 117 1.42009 117 3.17188V25.7126C117 27.4644 115.568 28.8845 113.801 28.8845H3.19922C1.43234 28.8845 0 27.4644 0 25.7126V3.17188C0 1.42009 1.43234 0 3.19922 0Z" fill="#3178C6"/>
<path d="M36.9213 10.4865H40.9034V8.5498H30.6485V10.4865H34.621V22.2987H36.9213V10.4865ZM44.5743 23.8709L49.0607 12.4782H46.7883L44.3023 19.6321C44.2434 19.8514 44.1971 20.03 44.1636 20.1677L44.1275 20.3224H44.0788C44.027 20.1033 43.9859 19.9322 43.9554 19.8091L43.904 19.6128L41.5345 12.4782H39.0389L42.9913 22.2788L42.3213 23.8899C41.9069 24.7082 41.2789 25.1174 40.4372 25.1174C40.1459 25.1174 39.8222 25.0599 39.466 24.9448V26.7958C39.7833 26.8789 40.1783 26.9204 40.6509 26.9204C42.3343 26.9204 43.6421 25.9039 44.5743 23.8709ZM56.1248 12.2471C57.3859 12.2471 58.369 12.6847 59.074 13.56C59.7789 14.4353 60.1314 15.6108 60.1314 17.0867C60.1314 18.7223 59.7336 20.0321 58.9381 21.0162C58.1428 22.0001 57.0563 22.492 55.6785 22.492C54.4107 22.492 53.4341 21.9426 52.7487 20.8438H52.7099V26.8046H50.459V12.4773H52.7099V14.2023H52.7487C53.5184 12.8988 54.6437 12.2471 56.1248 12.2471ZM55.3387 14.0958C54.5374 14.0958 53.8929 14.3753 53.4052 14.9343C52.9173 15.4938 52.6733 16.1929 52.6733 17.0316V18.2421C52.6733 18.954 52.9043 19.5577 53.3664 20.0533C53.8285 20.549 54.4148 20.7969 55.1255 20.7969C55.9591 20.7969 56.6134 20.4775 57.0885 19.8387C57.5633 19.2003 57.8007 18.3091 57.8007 17.1651C57.8007 16.2055 57.5794 15.4541 57.1367 14.9108C56.6941 14.3673 56.0948 14.0958 55.3387 14.0958ZM66.0383 12.2468C67.3847 12.2468 68.4266 12.6785 69.1639 13.5417C69.9012 14.4049 70.2699 15.6039 70.2699 17.1388V17.9925H63.5568C63.5826 18.9005 63.8631 19.6008 64.3984 20.0932C64.9338 20.5856 65.6695 20.8318 66.6057 20.8318C67.6572 20.8318 68.6221 20.5184 69.5005 19.8917V21.6854C68.6029 22.2482 67.4168 22.5296 65.9421 22.5296C64.4931 22.5296 63.3566 22.0836 62.5326 21.1915C61.7087 20.2993 61.2968 19.0443 61.2968 17.4265C61.2968 15.8983 61.7504 14.6529 62.6576 13.6905C63.5648 12.7281 64.6917 12.2468 66.0383 12.2468ZM75.718 8.31848C76.5466 8.31848 77.3752 8.45585 78.204 8.7306V9.72725C77.3882 9.36293 76.5174 9.18085 75.5916 9.181C74.6465 9.181 73.8971 9.41739 73.3435 9.89015C72.7898 10.3629 72.5131 10.9634 72.5133 11.6915C72.5133 12.3943 72.7026 12.9533 73.0814 13.3686C73.4601 13.7838 74.2774 14.3492 75.5333 15.0648C76.8346 15.7932 77.7006 16.4399 78.1311 17.0051C78.5616 17.5706 78.7769 18.2207 78.7769 18.9554C78.7769 20.0093 78.4062 20.8685 77.6649 21.533C76.9236 22.1974 75.8765 22.5297 74.5235 22.5298C74.0444 22.5298 73.4925 22.4563 72.8677 22.3092C72.2429 22.1622 71.7655 21.993 71.4354 21.8014V20.7185C72.4323 21.3447 73.4423 21.6577 74.4652 21.6576C75.553 21.6576 76.3784 21.4355 76.9414 20.9915C77.5045 20.5474 77.7861 19.9262 77.7863 19.1278C77.7863 18.425 77.5969 17.8644 77.2182 17.446C76.853 17.0427 76.077 16.4982 74.8901 15.8125L74.7564 15.7355C73.3451 14.9244 72.4516 14.2456 72.0761 13.6991C71.7007 13.1531 71.5131 12.5223 71.5131 11.8066C71.5129 10.8354 71.8948 10.0113 72.6588 9.33416C73.4228 8.65719 74.4425 8.31863 75.718 8.31848ZM66.0723 13.8643C65.4332 13.8643 64.8916 14.0985 64.4473 14.5671C64.0031 15.0358 63.7298 15.6488 63.6274 16.4061H68.1724C68.166 15.6041 67.9774 14.9799 67.6066 14.5335C67.2359 14.0874 66.7246 13.8643 66.0726 13.8643M84.4765 22.5296C85.5036 22.5296 86.3876 22.3062 87.1284 21.8594V20.9403C86.3876 21.4636 85.5166 21.7253 84.5156 21.7253C83.4233 21.7253 82.5441 21.3392 81.8781 20.5669C81.2117 19.7945 80.8785 18.7732 80.8785 17.5031C80.8785 16.1883 81.2426 15.1175 81.9706 14.2909C82.6987 13.4644 83.6477 13.0511 84.8177 13.0511C85.6693 13.0511 86.4526 13.2681 87.1675 13.7021V12.7063C86.4526 12.4 85.7148 12.2468 84.9543 12.2468C83.4851 12.2468 82.2825 12.7431 81.3465 13.7356C80.4105 14.7282 79.9425 16.0033 79.9425 17.5606C79.9425 19.0415 80.3585 20.2398 81.1905 21.1557C82.0224 22.0717 83.1178 22.5296 84.4765 22.5296ZM92.9942 13.3638C92.6984 13.1517 92.351 13.0458 91.9522 13.0459C91.1735 13.0459 90.5204 13.4471 89.9929 14.2494C89.4653 15.0518 89.2015 16.1912 89.2015 17.6676V22.2985H88.3329V12.4397H89.2013V14.6251H89.2402C89.4653 13.8742 89.8223 13.2902 90.3112 12.8728C90.8001 12.4555 91.3663 12.2469 92.01 12.2471C92.3765 12.2471 92.7046 12.3048 92.9942 12.4204V13.3638ZM95.3251 12.4779V22.2985H94.3927V12.4782L95.3251 12.4779ZM94.9073 8.54958C95.1106 8.54958 95.2893 8.61543 95.4434 8.74714C95.5975 8.879 95.6745 9.05692 95.6745 9.28092C95.6745 9.49162 95.5991 9.67272 95.4482 9.82422C95.2974 9.97601 95.1171 10.0518 94.9073 10.0517C94.7104 10.0517 94.5365 9.97918 94.3859 9.83418C94.2352 9.68918 94.1598 9.50476 94.1596 9.28092C94.1596 9.06342 94.2367 8.88715 94.3909 8.75212C94.5448 8.61709 94.7169 8.54958 94.9073 8.54958ZM102.048 12.2468C103.304 12.2468 104.284 12.6762 104.989 13.5349C105.694 14.3937 106.046 15.5606 106.046 17.0355C106.046 18.6764 105.642 20.0029 104.834 21.015C104.026 22.027 102.959 22.533 101.633 22.533C100.152 22.533 99.0577 21.8722 98.3495 20.5506H98.3111V26.8046H97.4226V12.4863H98.3111V14.5073H98.3495C98.7037 13.7857 99.2107 13.2287 99.8705 12.8361C100.53 12.4436 101.256 12.247 102.048 12.2468ZM102.012 13.0559C100.848 13.0559 99.9476 13.4384 99.3106 14.2034C98.6735 14.9686 98.3549 15.8677 98.3547 16.9007V18.1345C98.3547 19.1165 98.6701 19.9597 99.3008 20.6643C99.9315 21.3689 100.76 21.7212 101.788 21.7212C102.808 21.7212 103.637 21.2924 104.275 20.4348C104.912 19.5771 105.23 18.4501 105.23 17.0538C105.23 15.8295 104.938 14.8571 104.353 14.1366C103.768 13.4161 102.987 13.0559 102.012 13.0559ZM110.343 22.5298C110.746 22.5298 111.179 22.4215 111.64 22.2047V21.3823C111.217 21.6182 110.823 21.7362 110.458 21.7362C109.946 21.7362 109.583 21.5848 109.368 21.2819C109.154 20.9791 109.046 20.4897 109.047 19.8138V13.3491H111.64V12.5459H109.047V9.70527C108.906 9.75632 108.758 9.80413 108.605 9.84868C108.451 9.89974 108.304 9.95071 108.163 10.0016V12.5457H106.396V13.3488H108.163V19.9284C108.163 21.6627 108.89 22.5298 110.343 22.5298Z" fill="white"/>
</g>
<defs>
<clipPath id="clip0_9_123">
<rect width="117" height="29" fill="white"/>
</clipPath>
</defs>
</svg>
