<svg width="30" height="30" viewBox="0 0 30 30" fill="none" xmlns="http://www.w3.org/2000/svg">
<path d="M28.0163 5.76178L15.6956 27.793C15.6378 27.8967 15.5534 27.983 15.4512 28.0433C15.349 28.1036 15.2326 28.1356 15.1139 28.1361C14.9952 28.1366 14.8785 28.1055 14.7758 28.046C14.6731 27.9866 14.5881 27.9009 14.5294 27.7977L1.96501 5.76366C1.90184 5.6531 1.87152 5.52682 1.87759 5.39964C1.88367 5.27245 1.9259 5.14964 1.99932 5.04561C2.07274 4.94157 2.17431 4.86064 2.29211 4.81231C2.40991 4.76397 2.53906 4.75024 2.66439 4.77272L14.9981 6.97772C15.0765 6.99213 15.1569 6.99213 15.2353 6.97772L27.3113 4.77647C27.4361 4.75366 27.5649 4.76681 27.6825 4.81439C27.8002 4.86197 27.9019 4.94201 27.9758 5.04519C28.0497 5.14837 28.0927 5.27043 28.0999 5.39715C28.1071 5.52386 28.0781 5.65093 28.0163 5.76178Z" fill="url(#paint0_linear_18_69)"/>
<path d="M20.8725 1.88156L11.7563 3.6675C11.6835 3.68219 11.6176 3.72047 11.5688 3.7764C11.52 3.83233 11.491 3.90279 11.4863 3.97687L10.9256 13.4494C10.9225 13.5013 10.9316 13.5533 10.9521 13.6012C10.9726 13.649 11.004 13.6914 11.0438 13.725C11.0836 13.7586 11.1306 13.7824 11.1813 13.7946C11.2319 13.8068 11.2846 13.8071 11.3353 13.7953L13.8731 13.2094C13.9278 13.1967 13.9848 13.1981 14.0388 13.2132C14.0928 13.2283 14.1422 13.2568 14.1823 13.296C14.2225 13.3352 14.2521 13.3839 14.2685 13.4376C14.285 13.4912 14.2876 13.5482 14.2763 13.6031L13.5225 17.2959C13.5109 17.3528 13.5142 17.4117 13.5322 17.4668C13.5502 17.522 13.5823 17.5715 13.6252 17.6106C13.6681 17.6496 13.7205 17.6769 13.7771 17.6896C13.8337 17.7023 13.8926 17.7001 13.9481 17.6831L15.5156 17.2069C15.5712 17.1899 15.6303 17.1876 15.687 17.2004C15.7437 17.2131 15.7961 17.2404 15.8391 17.2796C15.882 17.3188 15.9141 17.3685 15.932 17.4238C15.9499 17.4791 15.9531 17.5381 15.9413 17.595L14.7422 23.3953C14.6672 23.7581 15.15 23.9559 15.3516 23.6456L15.4856 23.4375L22.9153 8.61093C22.9432 8.55507 22.9549 8.49251 22.9491 8.43034C22.9433 8.36818 22.9202 8.30887 22.8825 8.25913C22.8448 8.20939 22.7938 8.1712 22.7355 8.14887C22.6772 8.12655 22.6138 8.12099 22.5525 8.13281L19.9397 8.63625C19.8835 8.64701 19.8254 8.64316 19.7711 8.62508C19.7167 8.60699 19.668 8.57526 19.6294 8.53293C19.5908 8.49061 19.5638 8.43909 19.5508 8.38332C19.5378 8.32754 19.5394 8.26937 19.5553 8.21437L21.2597 2.3025C21.2758 2.24732 21.2773 2.18893 21.2643 2.13297C21.2513 2.077 21.224 2.02533 21.1852 1.98295C21.1464 1.94056 21.0973 1.90888 21.0427 1.89096C20.9881 1.87304 20.9298 1.86948 20.8735 1.88062" fill="url(#paint1_linear_18_69)"/>
<defs>
<linearGradient id="paint0_linear_18_69" x1="1.658" y1="3.98509" x2="16.991" y2="24.8085" gradientUnits="userSpaceOnUse">
<stop stop-color="#41D1FF"/>
<stop offset="1" stop-color="#BD34FE"/>
</linearGradient>
<linearGradient id="paint1_linear_18_69" x1="14.2894" y1="2.36604" x2="17.063" y2="21.3931" gradientUnits="userSpaceOnUse">
<stop stop-color="#FFEA83"/>
<stop offset="0.083" stop-color="#FFDD35"/>
<stop offset="1" stop-color="#FFA800"/>
</linearGradient>
</defs>
</svg>
