<svg width="37" height="37" viewBox="0 0 37 37" fill="none" xmlns="http://www.w3.org/2000/svg">
<path d="M29.3688 7.56959C27.9554 6.1419 26.2718 5.00991 24.4164 4.23967C22.5609 3.46943 20.5707 3.07635 18.5617 3.08334C10.1442 3.08334 3.28376 9.94376 3.28376 18.3613C3.28376 21.0592 3.99293 23.68 5.31876 25.9925L3.16043 33.9167L11.2542 31.7892C13.4896 33.0071 16.0025 33.6546 18.5617 33.6546C26.9792 33.6546 33.8396 26.7942 33.8396 18.3767C33.8396 14.2913 32.2517 10.4525 29.3688 7.56959ZM18.5617 31.0646C16.28 31.0646 14.0446 30.4479 12.0867 29.2917L11.6242 29.0142L6.81418 30.2783L8.09376 25.5917L7.78543 25.1138C6.51779 23.0895 5.84469 20.7497 5.84293 18.3613C5.84293 11.3621 11.5471 5.65793 18.5463 5.65793C21.9379 5.65793 25.1292 6.98376 27.5188 9.38876C28.702 10.5665 29.6396 11.9674 30.2774 13.5103C30.9152 15.0531 31.2404 16.7072 31.2342 18.3767C31.265 25.3758 25.5608 31.0646 18.5617 31.0646ZM25.53 21.5679C25.1446 21.3829 23.2638 20.4579 22.9246 20.3192C22.57 20.1958 22.3233 20.1342 22.0613 20.5042C21.7992 20.8896 21.0746 21.7529 20.8588 21.9996C20.6429 22.2617 20.4117 22.2925 20.0263 22.0921C19.6408 21.9071 18.4075 21.4908 16.9583 20.1958C15.8175 19.1783 15.0621 17.9296 14.8308 17.5442C14.615 17.1588 14.8 16.9583 15.0004 16.7579C15.17 16.5883 15.3858 16.3108 15.5708 16.095C15.7558 15.8792 15.8329 15.7096 15.9563 15.4629C16.0796 15.2008 16.0179 14.985 15.9254 14.8C15.8329 14.615 15.0621 12.7342 14.7538 11.9633C14.4454 11.2233 14.1217 11.3158 13.8904 11.3004H13.1504C12.8883 11.3004 12.4875 11.3929 12.1329 11.7783C11.7938 12.1638 10.8071 13.0888 10.8071 14.9696C10.8071 16.8504 12.1792 18.6696 12.3642 18.9163C12.5492 19.1783 15.0621 23.0325 18.8854 24.6821C19.795 25.0829 20.5042 25.3142 21.0592 25.4838C21.9688 25.7767 22.8013 25.7304 23.4642 25.6379C24.2042 25.53 25.7304 24.7129 26.0388 23.8188C26.3625 22.9246 26.3625 22.1692 26.2546 21.9996C26.1467 21.83 25.9154 21.7529 25.53 21.5679Z" fill="#0FA958"/>
</svg>
