<svg width="24" height="24" viewBox="0 0 24 24" fill="none" xmlns="http://www.w3.org/2000/svg">
<g clip-path="url(#clip0_10_205)">
<path d="M18.9495 11.4796C18.9495 10.2076 18.492 9.32707 18.1005 8.64157L17.9805 8.44657C17.505 7.68157 17.0895 7.00957 17.0895 6.22657C17.0895 5.28157 17.8065 4.39957 18.8175 4.39957C18.8475 4.39957 18.8765 4.40107 18.9045 4.40407L18.951 4.40857C17.0551 2.66754 14.574 1.70274 12 1.70557C10.2941 1.70537 8.61496 2.12927 7.11359 2.93913C5.61222 3.74899 4.33574 4.91941 3.399 6.34507C3.639 6.35257 3.8685 6.35857 4.062 6.35857C5.1375 6.35857 6.804 6.22807 6.804 6.22807C7.359 6.19507 7.425 7.00957 6.87 7.07557C6.87 7.07557 6.3135 7.14157 5.6925 7.17307L9.4425 18.3241L11.6925 11.5651L10.0875 7.17157C9.534 7.13857 9.009 7.07407 9.009 7.07407C8.454 7.04107 8.52 6.19207 9.0735 6.22507C9.0735 6.22507 10.7745 6.35557 11.7855 6.35557C12.8625 6.35557 14.5305 6.22507 14.5305 6.22507C15.0855 6.19207 15.15 7.00807 14.595 7.07407C14.595 7.07407 14.037 7.13857 13.4175 7.17157L17.1375 18.2371L18.1635 14.8066L18.2445 14.5471C18.6495 13.2571 18.948 12.3046 18.948 11.4781L18.9495 11.4796ZM1.7055 12.0001C1.70469 13.9333 2.24852 15.8277 3.27468 17.4662C4.30083 19.1046 5.7678 20.4209 7.5075 21.2641L2.595 7.80907C2.00514 9.12735 1.70195 10.5559 1.7055 12.0001Z" fill="#699BF7"/>
<path d="M9.0915 21.8745L12.1815 12.9L15.345 21.57C15.365 21.62 15.3895 21.667 15.4185 21.711C13.3792 22.4299 11.1652 22.4871 9.0915 21.8745ZM21.0315 7.06055C21.0775 7.38855 21.101 7.74155 21.102 8.11955C21.102 9.16355 20.907 10.338 20.319 11.8065L17.175 20.8965C19.4951 19.5486 21.1968 17.3477 21.9175 14.7631C22.6382 12.1784 22.3208 9.41453 21.033 7.06055H21.0315Z" fill="#699BF7"/>
<path fill-rule="evenodd" clip-rule="evenodd" d="M0 12C0 5.3835 5.3835 0 12 0C18.6165 0 24 5.3835 24 12C24 18.6165 18.615 24 12 24C5.385 24 0 18.6165 0 12ZM0.5505 12C0.5505 18.3135 5.6865 23.4495 12 23.4495C18.3135 23.4495 23.448 18.3135 23.448 12C23.448 5.685 18.312 0.5505 12 0.5505C5.685 0.5505 0.5505 5.685 0.5505 12Z" fill="#699BF7"/>
</g>
<defs>
<clipPath id="clip0_10_205">
<rect width="24" height="24" fill="white"/>
</clipPath>
</defs>
</svg>
