<svg width="96" height="96" viewBox="0 0 96 96" fill="none" xmlns="http://www.w3.org/2000/svg">
<path fill-rule="evenodd" clip-rule="evenodd" d="M44.721 85.7865C42.9082 85.6245 41.0767 85.68 39.2527 85.6658C39.075 85.665 38.895 85.8608 38.7165 85.965C38.8732 86.0663 39.027 86.2485 39.1882 86.256C40.0432 86.298 40.3725 86.8035 40.38 87.5708C40.3957 89.2433 40.4167 90.918 40.3717 92.589C40.3432 93.6248 39.7762 94.074 38.7315 93.8955C38.2095 93.8055 37.641 93.6098 37.2397 93.2828C36.3352 92.5463 35.5215 91.6973 34.6027 90.8288L35.1495 90.6248C36.576 90.0825 37.2067 89.2388 37.1025 88.0103C37.008 86.8898 36.0817 85.9178 34.6777 85.7985C32.895 85.6478 31.095 85.6883 29.3025 85.6658C29.1667 85.6635 29.0295 85.821 28.8922 85.9043C29.0295 86.022 29.1622 86.238 29.3032 86.244C30.3202 86.283 30.5662 86.9138 30.5625 87.7778C30.5542 89.3283 30.5535 90.8788 30.5602 92.4293C30.5647 93.2723 30.279 93.8423 29.34 93.921C29.1832 93.9345 29.0415 94.1205 28.8922 94.227C29.076 94.3223 29.2582 94.497 29.4442 94.5C30.8437 94.523 32.243 94.5225 33.642 94.4985C33.8205 94.4963 33.996 94.3073 34.1722 94.2045L33.7035 93.9038C33.3427 93.6743 32.7532 93.5093 32.6677 93.2025C32.4652 92.478 32.5027 91.6875 32.4435 90.9248L32.7787 90.8145C32.994 91.0545 33.2205 91.2848 33.4222 91.5353C34.0912 92.3633 34.7377 93.2085 35.4232 94.0223C35.6017 94.2338 35.8935 94.491 36.1312 94.4895C39.1095 94.4685 42.0952 94.509 45.063 94.3073C46.761 94.1918 48.081 93.2108 48.6322 91.4775C49.536 88.6343 47.8132 86.061 44.721 85.7865ZM32.25 89.9438V86.5568C33 86.4548 34.1662 86.3138 34.641 87.1208C34.9537 87.6518 34.938 88.5555 34.7115 89.1383C34.3065 90.1778 33 89.9678 32.25 89.9438ZM46.2457 92.1668C45.7522 93.2723 43.986 93.984 42.8932 93.5483C42.6157 93.438 42.3165 92.9693 42.3082 92.658C42.2557 90.6368 42.2812 88.6118 42.2812 86.523C43.7445 86.4773 45.2115 86.34 46.0935 87.7253C46.9867 89.1293 46.9065 90.687 46.2457 92.1668ZM75.579 93.4718C74.8395 93.699 73.8127 93.768 73.1805 93.4208C71.9407 92.7398 72.7417 91.4138 72.51 90.3773C74.0955 90.2355 74.091 90.2363 74.6407 91.5645C74.6857 91.674 74.8365 91.7378 74.9385 91.824C75.0292 91.6635 75.195 91.5053 75.1987 91.3433C75.222 90.3083 75.2175 89.2725 75.1987 88.2375C75.1957 88.0988 75.0562 87.963 74.9062 87.6945C74.6475 88.272 74.649 88.8683 74.3115 89.109C73.9087 89.3963 72.75 89.3775 72.75 89.5125V86.4638C73.5 86.5163 74.349 86.6025 75.1628 86.6055C76.2262 86.6093 76.119 87.7208 76.6342 88.2585L76.8615 88.1565L76.7085 85.746C74.4967 85.4633 69.396 85.605 68.8665 85.995C69.0315 86.0925 69.1642 86.2403 69.303 86.2425C70.32 86.2568 70.5862 86.8853 70.5907 87.7523C70.5952 89.2133 70.6312 90.675 70.6005 92.136C70.5637 93.8753 69.5692 94.4445 68.1127 93.447C67.0822 92.742 66.2325 91.7715 65.4945 91.0958C66.2722 90.3195 67.1565 89.7713 67.539 88.9823C68.238 87.5363 67.0732 85.9658 65.1892 85.7895C63.4672 85.629 61.725 85.686 59.991 85.6695C59.8222 85.668 59.6527 85.827 59.4832 85.9118C59.6265 86.0273 59.7675 86.238 59.9152 86.2425C60.9412 86.2785 61.17 86.9453 61.182 87.786C61.2 89.004 61.2095 90.2215 61.2105 91.4385C61.2127 93.39 61.2082 93.39 59.5252 94.0695L59.4082 94.2968C59.6407 94.374 59.8485 94.5 60.0577 94.503C61.4277 94.5215 62.7977 94.5213 64.1677 94.5023C64.3717 94.4985 64.5735 94.3545 64.7767 94.275C64.5787 94.1438 64.3912 93.924 64.182 93.9C63.4702 93.8198 63.1605 93.393 63.1185 92.7495C63.0772 92.1345 63.1095 91.5143 63.1095 90.648C63.474 90.9885 63.7005 91.1573 63.8745 91.3695C64.569 92.217 65.2755 93.057 65.919 93.9435C66.246 94.3935 66.6082 94.5278 67.1437 94.5233C70.2495 94.5008 73.3657 94.5135 76.473 94.509C76.7032 94.509 77.25 94.4715 77.25 94.4445V92.1225C76.5 92.5935 76.209 93.2798 75.579 93.4718ZM63 89.937V86.5733C64.5 86.3768 65.643 86.8905 65.688 88.164C65.7345 89.4848 65.25 90.0158 63 89.937ZM19.7737 83.4008C19.1212 82.8795 15.1597 82.92 14.6535 83.4818C14.9467 83.5598 15.1897 83.658 15.441 83.6873C16.2037 83.7728 16.467 84.246 16.2645 84.9008C15.681 86.7915 15.0367 88.6635 14.3415 90.7725C14.184 90.3683 14.1142 90.21 14.0602 90.0458C13.3822 87.9998 12.717 85.9508 12.0187 83.9115C11.9122 83.6003 11.658 83.34 11.472 83.0565C11.2837 83.331 11.025 83.5808 10.9192 83.8845C10.1505 86.0873 9.41325 88.2998 8.66625 90.51L8.46599 90.5325C7.91474 88.8608 7.35524 87.1935 6.81299 85.518C6.38324 84.1935 6.48224 84.0353 7.84649 83.6235C7.98825 83.5793 8.10075 83.4428 8.2275 83.3483C8.1105 83.2493 7.99349 83.0648 7.875 83.064C6.1703 83.0454 4.46545 83.0451 2.76075 83.0633C2.6415 83.0648 2.523 83.247 2.4045 83.3445C2.499 83.4353 2.5905 83.6025 2.6895 83.607C4.206 83.6805 4.57725 84.828 4.9485 85.9823C5.814 88.6703 6.67799 91.3598 7.55399 94.0455C7.65599 94.3583 7.82625 94.65 7.96425 94.9508L8.22974 94.9343L10.9447 86.8433L13.6282 94.959L13.9447 94.9365C14.058 94.6455 14.184 94.3583 14.2837 94.062C15.2422 91.209 16.2037 88.3583 17.1472 85.5008C17.4997 84.432 18.0727 83.658 19.3102 83.61C19.455 83.6048 19.596 83.4848 19.7737 83.4008ZM56.2012 83.2545C54.0075 82.9995 51.7717 83.1023 49.554 83.0693C49.44 83.067 49.3222 83.2568 49.113 83.4375C49.398 83.5313 49.5555 83.6228 49.7167 83.6295C50.7832 83.673 51.2587 84.3015 51.2707 85.284C51.2985 87.5948 51.3015 89.9055 51.2685 92.2163C51.2542 93.1695 50.8432 93.8513 49.746 93.8925C49.5772 93.8993 49.4175 94.1228 49.254 94.2465C49.4505 94.3343 49.6447 94.4963 49.8427 94.4985C51.4857 94.5185 53.1292 94.518 54.7732 94.497C54.9615 94.4948 55.1475 94.3193 55.3357 94.2248C55.164 94.1093 55.002 93.9083 54.822 93.8933C54.0262 93.825 53.4637 93.4913 53.379 92.6558C53.2777 91.668 53.2425 90.672 53.1735 89.5823C53.9595 89.5823 54.63 89.6333 55.2907 89.5725C56.8567 89.43 58.2405 88.9163 58.8015 87.2745C59.4277 85.4438 58.278 83.4953 56.2012 83.2545ZM56.5147 87.5918C56.0302 88.4835 55.5 88.6755 53.25 88.467V84.051C54 84.0938 55.632 83.748 56.427 84.9165C57.0007 85.7625 57.0007 86.6978 56.5147 87.5918ZM26.7945 86.589C24.7582 84.8633 21.4777 84.9398 19.4947 86.7173C17.6557 88.3658 17.4217 90.9548 18.9615 92.8613C20.046 94.2045 21.5092 94.7685 23.307 94.8465C23.6235 94.8075 24.0555 94.7993 24.4635 94.6958C26.427 94.1978 27.8715 93.1013 28.3777 91.0538C28.8262 89.2388 28.173 87.7583 26.7945 86.589ZM25.476 92.9063C24.186 94.5518 21.5505 94.2045 20.5642 92.3543C19.9027 91.1145 19.8472 89.7983 20.2762 88.4693C20.76 86.9753 21.753 86.241 23.2305 86.244C24.7132 86.247 25.722 86.9783 26.2035 88.4558C26.3707 88.9703 26.436 89.5178 26.547 90.0495L26.715 90.1598C26.313 91.0845 26.0775 92.1398 25.476 92.9063ZM91.575 89.4645C90.7627 89.0543 89.9205 88.6853 89.1637 88.1873C88.8742 87.9968 88.5787 87.4388 88.6605 87.1568C88.761 86.811 89.211 86.436 89.5852 86.3243C90.6757 85.9973 91.6312 86.6708 92.0737 87.912C92.1615 88.1588 92.5117 88.359 92.67 88.5803C92.7345 88.5323 92.9985 88.4828 92.9985 88.434V85.152C92.2485 85.4888 92.2582 85.683 92.1952 85.7385C91.17 85.6088 90.2752 85.3988 89.4547 85.4235C88.3485 85.4558 87.4215 86.2253 87.1725 87.1335C86.8935 88.1498 87.2497 89.1518 88.1925 89.847C88.4587 90.0428 88.7527 90.1935 89.0482 90.3458C89.7232 90.6915 90.4155 90.9983 91.0747 91.3733C91.6747 91.7145 92.2297 92.166 91.9882 92.9663C91.722 93.8408 90.9705 93.9353 90.2025 93.8565C88.8562 93.7178 88.101 92.8935 87.7087 91.6515C87.6495 91.464 87.447 91.32 87.3127 91.1565C87.2265 91.2623 87.0675 91.3665 87.0652 91.4738C87.048 92.5815 87.054 93.6893 87.054 94.797L87.339 94.884L87.9817 94.0395C88.4025 94.2398 88.8225 94.4925 89.2777 94.6478C90.927 95.2043 92.7675 94.4588 93.3742 93.018C93.9735 91.5983 93.3427 90.3593 91.575 89.4645ZM83.4607 89.4525C82.7272 89.0843 81.9885 88.7288 81.2663 88.3403C80.751 88.065 80.2642 87.6098 80.6017 87.0435C80.832 86.658 81.4282 86.337 81.897 86.28C82.8937 86.1585 83.5732 86.7953 84.0037 87.9443C84.09 88.1738 84.3105 88.353 84.4687 88.5548L84.7057 88.3958C84.7057 87.4838 84.7072 86.5725 84.702 85.6613C84.7012 85.5795 84.6472 85.4978 84.5617 85.26L83.7532 85.9245C83.6025 85.8465 83.421 85.7423 83.2282 85.659C81.654 84.981 79.7707 85.5225 79.1565 86.826C78.54 88.1363 79.266 89.5245 80.9887 90.3653C81.7547 90.7313 82.5074 91.1243 83.2455 91.5435C83.7922 91.8593 84.1815 92.4315 83.856 92.9873C83.6145 93.4013 83.0137 93.771 82.527 93.8408C81.363 94.0103 80.349 93.315 79.8472 92.2028C79.737 91.9568 79.707 91.6703 79.581 91.4348C79.5127 91.308 79.3162 91.251 79.1782 91.1633C79.1062 91.2803 78.975 91.3973 78.9735 91.5165C78.9569 92.4904 78.9564 93.4646 78.972 94.4385C78.9742 94.56 79.0762 94.7505 79.1715 94.7805C79.272 94.812 79.4617 94.7205 79.539 94.6245C79.6665 94.464 79.7362 94.2563 79.8607 94.0088C80.3325 94.239 80.7247 94.479 81.15 94.629C82.7775 95.2065 84.678 94.4783 85.2878 93.0713C85.9117 91.626 85.2742 90.3615 83.4607 89.4525ZM48.129 73.2735C67.9965 73.2443 84.0787 57.0833 84.078 37.1483C84.078 17.538 68.07 1.38676 48.945 1.04551C28.86 0.687763 12.0772 16.986 12.072 36.75C12.0652 57.0818 28.0755 73.3035 48.129 73.2735ZM48.0705 2.79526C67.1445 2.78926 82.3417 18.2858 82.3357 37.7355C82.3297 56.097 66.7297 71.4585 48.0855 71.4623C29.0902 71.466 13.8142 56.0648 13.815 36.9113C13.8157 18.2513 29.3287 2.80126 48.0705 2.79526ZM33.675 20.9183C33.987 21.957 33.114 22.3193 32.1855 22.3905C31.2097 22.467 30.2325 22.5398 29.0992 22.626L40.3005 55.9965C40.5697 55.5563 40.6807 55.4325 40.7295 55.2878C42.801 49.0965 44.8845 42.909 46.9035 36.6998C47.088 36.1335 46.9965 35.3835 46.794 34.8015C45.726 31.7183 44.4465 28.7018 43.5097 25.581C42.8685 23.4443 42.0187 22.062 39.4942 22.3095C39.0637 22.3515 38.5395 21.426 38.0572 20.9475C38.64 20.6003 39.2182 19.9605 39.8062 19.9515C44.949 19.8727 50.0926 19.8742 55.2352 19.956C55.824 19.9658 56.403 20.6228 56.9865 20.979C56.4757 21.4455 56.0355 22.1445 55.4392 22.3245C54.4822 22.6133 53.421 22.5585 52.2757 22.6605L63.4905 56.0235C65.19 50.3805 66.7702 45.198 68.307 40.0035C69.6787 35.3655 68.8612 31.035 66.3817 26.9505C65.6362 25.722 64.7197 24.5303 64.2982 23.1908C63.8175 21.6668 63.4192 19.932 63.6742 18.4043C64.1055 15.8138 66.093 14.5275 68.7832 14.2815C54.0637 0.622514 30.936 5.51176 22.4137 20.3535C25.6942 20.2013 28.8262 20.0025 31.9605 19.9605C32.5537 19.953 33.5355 20.4533 33.675 20.9183ZM39.5392 66.1118C39.4702 66.312 39.4665 66.534 39.4132 66.867C45.7567 68.625 51.9765 68.4983 58.3432 66.3533L48.6165 39.7133C45.504 48.7613 42.5182 57.4358 39.5392 66.1118ZM34.638 64.9073L19.9845 24.7103C13.374 37.623 18.4027 57.3248 34.638 64.9073ZM78.9375 39.078C79.4017 32.9723 77.2965 24.5183 75.477 23.3558C75.2745 25.6013 75.4155 28.101 74.7712 30.3773C73.2547 35.7413 71.4 41.013 69.6135 46.299C67.6717 52.044 65.6535 57.7635 63.6675 63.4943C72.9952 57.9645 78.1215 49.8038 78.9375 39.078Z" fill="#F8F8F8"/>
</svg>
