<svg width="24" height="24" viewBox="0 0 24 24" fill="none" xmlns="http://www.w3.org/2000/svg">
<g clip-path="url(#clip0_10_189)">
<path d="M23.3438 3.99375L22.5187 16.8563L14.6813 0L23.3438 3.99375ZM17.9062 20.625L12 24L6.09375 20.625L7.29375 17.7188H16.725L17.9062 20.625ZM12 6.39375L15.0938 13.9313H8.90625L12 6.39375ZM1.48125 16.8563L0.65625 3.99375L9.31875 0L1.48125 16.8563Z" fill="url(#paint0_linear_10_189)"/>
<path d="M23.3438 3.99375L22.5187 16.8563L14.6813 0L23.3438 3.99375ZM17.9062 20.625L12 24L6.09375 20.625L7.29375 17.7188H16.725L17.9062 20.625ZM12 6.39375L15.0938 13.9313H8.90625L12 6.39375ZM1.48125 16.8563L0.65625 3.99375L9.31875 0L1.48125 16.8563Z" fill="url(#paint1_linear_10_189)"/>
</g>
<defs>
<linearGradient id="paint0_linear_10_189" x1="2.757" y1="15.6994" x2="20.8097" y2="7.1205" gradientUnits="userSpaceOnUse">
<stop stop-color="#E40035"/>
<stop offset="0.24" stop-color="#F60A48"/>
<stop offset="0.352" stop-color="#F20755"/>
<stop offset="0.494" stop-color="#DC087D"/>
<stop offset="0.745" stop-color="#9717E7"/>
<stop offset="1" stop-color="#6C00F5"/>
</linearGradient>
<linearGradient id="paint1_linear_10_189" x1="5.38744" y1="2.42419" x2="17.2016" y2="15.9009" gradientUnits="userSpaceOnUse">
<stop stop-color="#FF31D9"/>
<stop offset="1" stop-color="#FF5BE1" stop-opacity="0"/>
</linearGradient>
<clipPath id="clip0_10_189">
<rect width="24" height="24" fill="white"/>
</clipPath>
</defs>
</svg>
