<svg width="34" height="33" viewBox="0 0 34 33" fill="none" xmlns="http://www.w3.org/2000/svg">
<path d="M17 0.333344C14.8113 0.333344 12.644 0.76444 10.6219 1.60202C8.59983 2.4396 6.76251 3.66725 5.21487 5.2149C2.08926 8.3405 0.333313 12.5797 0.333313 17C0.333313 24.3667 5.11665 30.6167 11.7333 32.8333C12.5666 32.9667 12.8333 32.45 12.8333 32V29.1833C8.21665 30.1833 7.23331 26.95 7.23331 26.95C6.46665 25.0167 5.38331 24.5 5.38331 24.5C3.86665 23.4667 5.49998 23.5 5.49998 23.5C7.16665 23.6167 8.04998 25.2167 8.04998 25.2167C9.49998 27.75 11.95 27 12.9 26.6C13.05 25.5167 13.4833 24.7833 13.95 24.3667C10.25 23.95 6.36665 22.5167 6.36665 16.1667C6.36665 14.3167 6.99998 12.8333 8.08331 11.65C7.91665 11.2333 7.33331 9.50001 8.24998 7.25001C8.24998 7.25001 9.64998 6.80001 12.8333 8.95001C14.15 8.58334 15.5833 8.40001 17 8.40001C18.4166 8.40001 19.85 8.58334 21.1666 8.95001C24.35 6.80001 25.75 7.25001 25.75 7.25001C26.6666 9.50001 26.0833 11.2333 25.9166 11.65C27 12.8333 27.6333 14.3167 27.6333 16.1667C27.6333 22.5333 23.7333 23.9333 20.0166 24.35C20.6166 24.8667 21.1666 25.8833 21.1666 27.4333V32C21.1666 32.45 21.4333 32.9833 22.2833 32.8333C28.9 30.6 33.6666 24.3667 33.6666 17C33.6666 14.8113 33.2356 12.644 32.398 10.622C31.5604 8.59986 30.3327 6.76254 28.7851 5.2149C27.2374 3.66725 25.4001 2.4396 23.378 1.60202C21.3559 0.76444 19.1887 0.333344 17 0.333344Z" fill="#F8F8F8"/>
</svg>

