<svg width="90" height="73" viewBox="0 0 90 73" fill="none" xmlns="http://www.w3.org/2000/svg">
<path d="M10.6719 39.5H74.3281C74.7301 39.5 75.1156 39.3403 75.3998 39.0561C75.6841 38.7719 75.8438 38.3863 75.8438 37.9844V24.3438C75.8441 23.9456 75.7659 23.5512 75.6138 23.1832C75.4617 22.8153 75.2385 22.4809 74.9571 22.1991L53.7384 0.980392C53.4566 0.698987 53.1222 0.475845 52.7543 0.323712C52.3863 0.17158 51.9919 0.0934378 51.5938 0.0937509H15.2188C13.6109 0.0937509 12.0689 0.732476 10.9319 1.86942C9.79498 3.00636 9.15625 4.54838 9.15625 6.15625V37.9844C9.15625 38.3863 9.31593 38.7719 9.60017 39.0561C9.8844 39.3403 10.2699 39.5 10.6719 39.5ZM51.5938 7.67188L68.2656 24.3438H51.5938V7.67188ZM19.7656 51.625V69.8125C19.7656 70.6164 19.4463 71.3875 18.8778 71.9559C18.3093 72.5244 17.5383 72.8438 16.7344 72.8438C15.9304 72.8438 15.1594 72.5244 14.591 71.9559C14.0225 71.3875 13.7031 70.6164 13.7031 69.8125V63.75H6.125V69.8125C6.125 70.6164 5.80564 71.3875 5.23717 71.9559C4.6687 72.5244 3.89769 72.8438 3.09375 72.8438C2.28981 72.8438 1.5188 72.5244 0.950332 71.9559C0.381863 71.3875 0.0625 70.6164 0.0625 69.8125V51.625C0.0625 50.8211 0.381863 50.05 0.950332 49.4816C1.5188 48.9131 2.28981 48.5938 3.09375 48.5938C3.89769 48.5938 4.6687 48.9131 5.23717 49.4816C5.80564 50.05 6.125 50.8211 6.125 51.625V57.6875H13.7031V51.625C13.7031 50.8211 14.0225 50.05 14.591 49.4816C15.1594 48.9131 15.9304 48.5938 16.7344 48.5938C17.5383 48.5938 18.3093 48.9131 18.8778 49.4816C19.4463 50.05 19.7656 50.8211 19.7656 51.625ZM40.9844 51.625C40.9844 52.4289 40.665 53.2 40.0965 53.7684C39.5281 54.3369 38.7571 54.6562 37.9531 54.6562H34.9219V69.8125C34.9219 70.6164 34.6025 71.3875 34.034 71.9559C33.4656 72.5244 32.6946 72.8438 31.8906 72.8438C31.0867 72.8438 30.3157 72.5244 29.7472 71.9559C29.1787 71.3875 28.8594 70.6164 28.8594 69.8125V54.6562H25.8281C25.0242 54.6562 24.2532 54.3369 23.6847 53.7684C23.1162 53.2 22.7969 52.4289 22.7969 51.625C22.7969 50.8211 23.1162 50.05 23.6847 49.4816C24.2532 48.9131 25.0242 48.5938 25.8281 48.5938H37.9531C38.7571 48.5938 39.5281 48.9131 40.0965 49.4816C40.665 50.05 40.9844 50.8211 40.9844 51.625ZM68.2656 51.625V69.8125C68.2656 70.6164 67.9463 71.3875 67.3778 71.9559C66.8093 72.5244 66.0383 72.8438 65.2344 72.8438C64.4304 72.8438 63.6594 72.5244 63.091 71.9559C62.5225 71.3875 62.2031 70.6164 62.2031 69.8125V60.7188L58.5656 65.5687C58.2833 65.9452 57.9171 66.2508 57.4962 66.4612C57.0753 66.6717 56.6112 66.7812 56.1406 66.7812C55.67 66.7812 55.2059 66.6717 54.785 66.4612C54.3641 66.2508 53.998 65.9452 53.7156 65.5687L50.0781 60.7188V69.8125C50.0781 70.6164 49.7588 71.3875 49.1903 71.9559C48.6218 72.5244 47.8508 72.8438 47.0469 72.8438C46.2429 72.8438 45.4719 72.5244 44.9035 71.9559C44.335 71.3875 44.0156 70.6164 44.0156 69.8125V51.625C44.0156 50.9888 44.2158 50.3687 44.5878 49.8526C44.9598 49.3365 45.4848 48.9505 46.0883 48.7493C46.6919 48.5481 47.3434 48.5419 47.9507 48.7316C48.558 48.9213 49.0901 49.2973 49.4719 49.8062L56.1406 58.6992L62.8094 49.8062C63.1911 49.2973 63.7233 48.9213 64.3306 48.7316C64.9378 48.5419 65.5894 48.5481 66.1929 48.7493C66.7965 48.9505 67.3215 49.3365 67.6935 49.8526C68.0655 50.3687 68.2656 50.9888 68.2656 51.625ZM89.4844 69.8125C89.4844 70.6164 89.165 71.3875 88.5965 71.9559C88.0281 72.5244 87.2571 72.8438 86.4531 72.8438H75.8438C75.0398 72.8438 74.2688 72.5244 73.7003 71.9559C73.1319 71.3875 72.8125 70.6164 72.8125 69.8125V51.625C72.8125 50.8211 73.1319 50.05 73.7003 49.4816C74.2688 48.9131 75.0398 48.5938 75.8438 48.5938C76.6477 48.5938 77.4187 48.9131 77.9872 49.4816C78.5556 50.05 78.875 50.8211 78.875 51.625V66.7812H86.4531C87.2571 66.7812 88.0281 67.1006 88.5965 67.6691C89.165 68.2375 89.4844 69.0086 89.4844 69.8125Z" fill="#F24E1E"/>
</svg>
