<svg width="145" height="99" viewBox="0 0 145 99" fill="none" xmlns="http://www.w3.org/2000/svg">
<g clip-path="url(#clip0_9_97)">
<path d="M43.1347 65.3278L47.5413 79.6493C48.5314 82.901 48.9443 85.1709 48.7789 86.4647C51.189 79.9994 52.873 72.9537 53.831 65.3278H59.1297C56.851 77.743 53.8465 86.7646 50.1162 92.3925C47.21 96.7295 44.0262 98.8979 40.5592 98.8979C39.6348 98.8979 38.4952 98.6182 37.1429 98.0628V95.0701C37.8037 95.1671 38.5788 95.219 39.4703 95.219C41.0874 95.2186 42.3916 94.7702 43.383 93.8739C44.5705 92.782 45.165 91.5549 45.165 90.1947C45.165 89.266 44.7013 87.36 43.7784 84.4768L37.6385 65.3278H43.1347ZM9.40886 56.5253L17.4801 81.1919H17.53L25.6508 56.5253H32.2857C33.7386 68.7582 34.5967 79.9509 34.86 90.0963H29.2662C29.0691 80.6127 28.5246 71.6942 27.6327 63.3407H27.584L19.0658 90.0963H14.8059L6.33922 63.3407H6.28937C5.66161 71.3632 5.2655 80.2817 5.10105 90.0963H0C0.329648 78.1595 1.15462 66.9703 2.47491 56.5253H9.40886Z" fill="#00758F"/>
<path d="M99.8285 56.0272C108.511 56.0272 112.852 61.5831 112.852 72.6896C112.852 78.7249 111.546 83.2837 108.938 86.3635C108.468 86.9263 107.948 87.4125 107.401 87.8629L113.545 90.9058L113.539 90.9056L111.357 94.6789L103.356 90.0026C102.03 90.396 100.571 90.5927 98.9804 90.5927C94.7173 90.5927 91.533 89.3482 89.4276 86.8624C87.1167 84.1126 85.9618 79.7835 85.9618 73.8827C85.9618 67.8814 87.2651 63.3399 89.8745 60.2561C92.2512 57.4353 95.5697 56.0272 99.8285 56.0272ZM73.2414 56.0757C76.3445 56.0757 79.166 56.9074 81.7075 58.5649L80.4167 61.4461C78.242 60.5202 76.0978 60.0553 73.9834 60.0553C72.2678 60.0553 70.9458 60.4689 70.0242 61.3011C69.0976 62.1261 68.5244 63.1875 68.5244 64.4816C68.5244 66.4701 69.9387 68.1946 72.5501 69.6515C73.4057 70.1199 74.2582 70.5937 75.1077 71.0729L75.3026 71.1827L75.4003 71.2377L75.5954 71.3475L75.6928 71.4026L75.8877 71.5126C77.8644 72.6288 79.7245 73.6943 79.7245 73.6943C82.3357 75.5509 83.6373 77.5303 83.6373 80.7905C83.6373 83.6377 82.5956 85.9748 80.5192 87.8036C78.4413 89.6242 75.6498 90.5371 72.1539 90.5371C68.8844 90.5371 65.7156 89.4864 62.6462 87.4025L64.0821 84.5188C66.7235 85.8449 69.1137 86.5073 71.2601 86.5073C73.2732 86.5073 74.8489 86.0571 75.9888 85.1681C77.1264 84.2726 77.8081 83.0236 77.8081 81.4398C77.8081 79.4465 76.4238 77.7425 73.8843 76.3131C73.0894 75.8733 72.2969 75.4291 71.5068 74.9807L71.3123 74.8704C70.9549 74.6681 70.5949 74.4633 70.2423 74.2628L70.0512 74.1538C68.3364 73.1769 66.8538 72.3233 66.8538 72.3233C64.3152 70.4633 63.0422 68.4677 63.0422 65.1795C63.0422 62.4599 63.9915 60.2618 65.8872 58.5896C67.7877 56.9137 70.2391 56.0757 73.2414 56.0757ZM123.055 56.525V85.9663H133.601V90.096H117.707V56.5253L123.055 56.525ZM139.461 85.9791V86.6769H138.302V90.0923H137.416V86.6769H136.211V85.9791H139.461ZM141.602 85.9791L142.716 88.7829L143.738 85.9791H144.995V90.0923H144.159V86.962L142.995 90.0923H142.393L141.227 86.962H141.182V90.0923H140.392V85.9791H141.602ZM99.2825 60.1557C94.1662 60.1557 91.6066 64.3852 91.6066 72.8385C91.6066 77.6807 92.2849 81.1919 93.6389 83.3804C94.8929 85.4058 96.8569 86.4165 99.5312 86.4165C104.648 86.4165 107.207 82.1541 107.207 73.6333C107.207 68.8589 106.529 65.3777 105.176 63.1881C103.921 61.1673 101.958 60.1557 99.2828 60.1557" fill="#F29111"/>
<path d="M85.8723 2.08015C87.5695 -2.09714 93.5041 1.06633 95.8071 2.52551C96.3715 2.89059 97.0189 3.66188 97.666 3.94697C98.6756 3.98668 99.6844 4.06583 100.696 4.10809C102.593 4.55459 104.369 4.91938 105.864 5.77209C112.811 9.86967 117.332 14.0453 121.494 20.9424C122.383 22.4032 122.828 23.9841 123.554 25.565C124.562 27.9214 125.695 30.395 126.865 32.6232C127.389 33.6796 127.795 34.8543 128.522 35.7464C128.806 36.1543 129.613 36.2746 130.095 36.5183C131.429 37.2096 133.044 37.7343 134.298 38.5456C136.64 40.0082 138.904 41.7511 140.962 43.5353C141.73 44.2241 142.252 45.1991 142.983 45.9275V46.2951C142.335 46.4946 141.688 46.6988 141.041 46.8625C139.627 47.2261 138.375 47.1439 137.004 47.5078C136.157 47.754 135.105 48.0788 134.216 48.1614L134.298 48.2442C134.821 49.7406 137.649 50.9575 138.943 51.8525C140.514 52.9883 141.97 54.3658 143.142 55.9478C143.547 56.3514 143.952 56.7188 144.354 57.1213C144.636 57.5292 144.715 58.0569 145 58.4205V58.5436C144.685 58.4321 144.458 58.2194 144.243 57.997L144.114 57.8628C143.986 57.7295 143.857 57.5984 143.709 57.4904C142.818 56.8805 141.932 56.1509 141.041 55.5838C139.508 54.6097 137.73 54.0444 136.157 53.0666C135.267 52.499 134.419 51.8525 133.571 51.2029C132.802 50.6336 131.955 49.5403 131.472 48.729C131.187 48.2808 131.148 47.754 130.823 47.4298C130.881 46.8883 131.376 46.7275 131.876 46.5953L131.991 46.5649C132.164 46.5201 132.332 46.4753 132.48 46.416C134.579 45.523 137.083 45.1991 140.315 45.2802C140.193 44.4672 138.173 43.4542 137.529 42.9674C136.234 42.033 134.864 41.0581 133.491 40.2076C132.763 39.7623 131.51 39.4372 130.704 39.0732C129.613 38.6268 127.189 38.1805 126.585 37.3301C125.558 35.9895 124.821 34.3905 124.105 32.7753L123.91 32.3344L123.714 31.8939C122.868 29.9488 121.817 27.9209 120.969 25.9292C120.525 24.9577 120.322 24.105 119.836 23.1731C116.889 17.4549 112.527 12.6675 107.238 9.30063C105.5 8.2051 103.562 7.19128 101.422 6.50225C100.21 6.13547 98.7549 6.33829 97.4632 6.05689H96.6131C95.8875 5.85208 95.2817 5.08164 94.7156 4.67543C93.4653 3.82499 92.2129 3.25397 90.7176 2.64721C90.1937 2.40382 88.6975 1.83705 88.1753 2.28326C87.8519 2.36467 87.6879 2.48693 87.6083 2.81202C87.2866 3.29709 87.5695 4.02782 87.7698 4.47516C88.3764 5.77152 89.2237 6.54196 89.9929 7.63749C90.6771 8.60905 91.527 9.70457 92.0121 10.761C93.0589 13.0317 93.5463 15.5476 94.5162 17.818C94.8759 18.6719 95.4449 19.6434 95.9685 20.4136C96.4123 21.0249 97.2191 21.4669 97.4632 22.2407C97.9498 23.052 96.7348 25.729 96.4536 26.5791C95.4015 29.9057 95.6054 34.5297 96.817 37.4132L96.8815 37.5653L96.9461 37.7193C97.3885 38.7754 97.862 39.9126 99.0381 40.2079C99.1191 40.1274 99.0381 40.1696 99.1987 40.1274C99.4833 37.8955 99.5635 35.7461 100.332 33.9999C100.775 32.908 101.661 32.1362 102.269 31.2449C102.674 31.4877 102.674 32.2198 102.915 32.7043C103.441 33.961 104.005 35.3388 104.653 36.5991C105.983 39.1947 107.48 41.7111 109.175 43.9816C109.743 44.7926 110.549 45.6853 111.275 46.4157C111.599 46.6985 111.962 46.8619 112.205 47.2259H112.284V47.3484C111.073 46.9011 110.305 45.6455 109.338 44.9126C107.519 43.5348 105.34 41.4657 104.086 39.4803C103.562 38.3405 102.995 37.2481 102.429 36.114V36.0321C102.188 36.356 102.269 36.6777 102.148 37.1679C101.623 39.1947 102.027 41.5068 100.21 42.2359C98.15 43.0897 96.6133 40.8581 95.9685 39.844C93.9079 36.478 93.3435 30.7995 94.7966 26.2157C95.1195 25.2011 95.1634 23.9841 95.7269 23.174C95.6051 22.4415 95.0416 22.2413 94.7156 21.7925C94.1503 21.0255 93.6663 20.1319 93.2237 19.2801C92.3735 17.6161 91.7686 15.6278 91.1232 13.8433C90.8394 13.1145 90.7581 12.383 90.4752 11.6931C89.9926 10.6401 89.1031 9.58373 88.4169 8.65217C87.4877 7.31325 84.7814 4.71826 85.8723 2.08015ZM99.1183 10.0271C99.2262 10.1355 99.3565 10.2302 99.4913 10.3235L99.6538 10.4353C99.8705 10.5856 100.08 10.7439 100.209 10.9595C100.413 11.2449 100.451 11.5266 100.695 11.8125C100.695 12.7875 100.413 13.4357 99.8433 13.8396C99.8433 13.8396 99.8045 13.8821 99.7645 13.9219C99.4417 13.272 99.1588 12.6255 98.8337 11.9762C98.4332 11.4094 97.8671 10.9598 97.5408 10.3122H97.4624V10.2308C97.9498 10.1102 98.4332 10.0271 99.1183 10.0271Z" fill="#00758F"/>
</g>
<defs>
<clipPath id="clip0_9_97">
<rect width="145" height="99" fill="white"/>
</clipPath>
</defs>
</svg>
