<svg width="24" height="24" viewBox="0 0 24 24" fill="none" xmlns="http://www.w3.org/2000/svg">
<g clip-path="url(#clip0_11_222)">
<mask id="mask0_11_222" style="mask-type:luminance" maskUnits="userSpaceOnUse" x="0" y="0" width="24" height="24">
<path d="M12 24C18.6274 24 24 18.6274 24 12C24 5.37258 18.6274 0 12 0C5.37258 0 0 5.37258 0 12C0 18.6274 5.37258 24 12 24Z" fill="white"/>
</mask>
<g mask="url(#mask0_11_222)">
<path d="M12 24C18.6274 24 24 18.6274 24 12C24 5.37258 18.6274 0 12 0C5.37258 0 0 5.37258 0 12C0 18.6274 5.37258 24 12 24Z" fill="white"/>
<path d="M19.9345 21.0026L9.21892 7.19995H7.20001V16.7959H8.81514V9.2512L18.6666 21.9793C19.1105 21.6823 19.534 21.356 19.9345 21.0026Z" fill="url(#paint0_linear_11_222)"/>
<path d="M15.3334 7.19995H16.9334V16.8H15.3334V7.19995Z" fill="url(#paint1_linear_11_222)"/>
</g>
</g>
<defs>
<linearGradient id="paint0_linear_11_222" x1="715.655" y1="840.531" x2="1140.91" y2="1367.62" gradientUnits="userSpaceOnUse">
<stop stop-color="#070707"/>
<stop offset="1" stop-color="white" stop-opacity="0"/>
</linearGradient>
<linearGradient id="paint1_linear_11_222" x1="95.3349" y1="7.19995" x2="92.6278" y2="712.195" gradientUnits="userSpaceOnUse">
<stop stop-color="#070707"/>
<stop offset="1" stop-color="white" stop-opacity="0"/>
</linearGradient>
<clipPath id="clip0_11_222">
<rect width="24" height="24" fill="white"/>
</clipPath>
</defs>
</svg>
