<svg width="100" height="100" viewBox="0 0 100 100" fill="none" xmlns="http://www.w3.org/2000/svg">
<path d="M59.2917 50.0167C59.2917 52.4869 58.3107 54.856 56.5644 56.6031C54.818 58.3502 52.4494 59.3322 49.9792 59.3333C47.5082 59.3333 45.1385 58.3517 43.3913 56.6045C41.6441 54.8573 40.6625 52.4876 40.6625 50.0167C40.6625 47.5464 41.6435 45.1773 43.3898 43.4302C45.1361 41.6832 47.5048 40.7011 49.975 40.7C52.4459 40.7 54.8157 41.6816 56.5629 43.4288C58.3101 45.176 59.2917 47.5457 59.2917 50.0167ZM70.325 5.47499C64.7167 5.47499 57.3792 9.47499 49.9583 16.4C42.5417 9.51249 35.2 5.55832 29.5958 5.55832C27.8875 5.55832 26.3333 5.94582 24.9875 6.71666C19.2583 10.0208 17.975 20.3167 20.9333 33.2375C8.25 37.1542 0 43.4167 0 50.0167C0 56.6417 8.29167 62.9208 21.0125 66.8083C18.0792 79.7792 19.3875 90.0917 25.1292 93.3916C26.4625 94.1708 28.0042 94.5375 29.7208 94.5375C35.325 94.5375 42.6667 90.5375 50.0875 83.6042C57.5042 90.4958 64.8458 94.45 70.45 94.45C72.1583 94.45 73.7125 94.075 75.0583 93.3042C80.7833 90.0042 82.0708 79.7083 79.1125 66.7833C91.75 62.9 100 56.625 100 50.0167C100 43.3917 91.7083 37.1125 78.9875 33.2167C81.9208 20.2583 80.6125 9.93749 74.8708 6.63332C73.4826 5.85329 71.9172 5.45371 70.325 5.47499ZM70.3042 10.0167V10.0417C71.2417 10.0417 71.9958 10.225 72.6292 10.5708C75.4042 12.1625 76.6083 18.2167 75.6708 26.0042C75.4458 27.9208 75.0792 29.9417 74.6292 32.0042C70.3686 30.9736 66.0435 30.2302 61.6833 29.7792C59.0856 26.1967 56.253 22.7906 53.2042 19.5833C59.8375 13.4167 66.0667 10.0333 70.3083 10.0208L70.3042 10.0167ZM29.5958 10.1C33.8125 10.1 40.0708 13.4667 46.7208 19.6C43.8625 22.6 41.0125 26.0042 38.3042 29.775C33.9343 30.224 29.6005 30.973 25.3333 32.0167C24.8859 30.0625 24.5327 28.088 24.275 26.1C23.3167 18.3167 24.5 12.2667 27.25 10.6542C28.0417 10.2792 28.9167 10.1208 29.5958 10.1ZM49.9375 22.8083C51.8375 24.7639 53.7264 26.9361 55.6042 29.325C53.7708 29.2417 51.8958 29.1833 50 29.1833C48.0806 29.1805 46.1917 29.2278 44.3333 29.325C46.1667 26.9417 48.0625 24.7625 49.9375 22.8083ZM50 33.75C53.0833 33.75 56.1542 33.8917 59.175 34.1375C60.8694 36.5653 62.5125 39.1486 64.1042 41.8875C65.6514 44.5569 67.0653 47.2597 68.3458 49.9958C67.0625 52.725 65.6542 55.4542 64.125 58.1208C62.5417 60.8708 60.9042 63.4875 59.2083 65.9125C53.0926 66.4484 46.942 66.4554 40.825 65.9333C39.0771 63.4182 37.4327 60.8327 35.8958 58.1833C34.3486 55.5139 32.9347 52.8111 31.6542 50.075C32.9409 47.3004 34.3492 44.5839 35.875 41.9333C37.4583 39.1833 39.0958 36.575 40.7917 34.15C43.8536 33.8781 46.926 33.7418 50 33.7417V33.75ZM34.8542 34.8083C33.8542 36.3792 32.8542 37.9875 31.9208 39.6417C30.9875 41.2667 30.1056 42.8972 29.275 44.5333C28.1708 41.8 27.2333 39.075 26.4583 36.4208C29.125 35.7958 31.9375 35.2375 34.8542 34.8083ZM65.1042 34.8083C68.0042 35.2333 70.7903 35.7708 73.4625 36.4208C72.7125 39.0542 71.775 41.7625 70.7125 44.475C69.012 41.1585 67.1414 37.932 65.1083 34.8083H65.1042ZM77.8667 37.6208C79.8861 38.2486 81.7958 38.9403 83.5958 39.6958C90.8125 42.7792 95.4792 46.8125 95.4792 50.0125C95.4583 53.2125 90.7917 57.2625 83.575 60.325C81.825 61.075 79.9083 61.75 77.9292 62.3792C76.6773 58.1436 75.1461 53.9956 73.3458 49.9625C75.2208 45.725 76.7208 41.5875 77.8667 37.6125V37.6208ZM22.0542 37.6375C23.2125 41.6375 24.7417 45.7917 26.6375 50.0541C24.8481 54.0623 23.3362 58.1887 22.1125 62.4042C20.0958 61.7792 18.1792 61.0792 16.4042 60.3208C9.1875 57.25 4.52083 53.2125 4.52083 50.0125C4.52083 46.8125 9.1875 42.7542 16.4042 39.6958C18.1542 38.9458 20.0708 38.2708 22.0542 37.6375ZM70.7125 55.4708C71.8167 58.2083 72.7542 60.9375 73.5292 63.5875C70.8625 64.2416 68.0458 64.7958 65.1292 65.2125C67.1588 62.064 69.0197 58.8125 70.7125 55.4708ZM29.275 55.5542C30.1083 57.1875 30.9833 58.8167 31.9417 60.45C32.9 62.0778 33.8792 63.6653 34.8792 65.2125C32.0697 64.8061 29.2805 64.2694 26.5208 63.6042C27.2708 60.9792 28.2125 58.2625 29.2708 55.55L29.275 55.5542ZM74.6667 68C75.1333 70.0542 75.5 72.0333 75.725 73.9292C76.6833 81.7125 75.5 87.7625 72.75 89.3792C72.1375 89.7542 71.3417 89.9125 70.4042 89.9125C66.1875 89.9125 59.9292 86.55 53.2792 80.4125C56.1375 77.4125 58.9875 74.0125 61.6958 70.2458C66.3083 69.7542 70.6708 69 74.6667 68ZM25.375 68.0417C29.375 69.0167 33.7333 69.7708 38.3208 70.2583C41.0708 74.0292 43.925 77.4542 46.8 80.45C40.1542 86.6292 33.9167 90.0125 29.675 90.0125C28.874 90.0164 28.0837 89.8277 27.3708 89.4625C24.5958 87.8792 23.3917 81.8208 24.3292 74.0333C24.5542 72.1167 24.925 70.1 25.375 68.0417ZM44.375 70.7083C46.2111 70.7972 48.0792 70.8444 49.9792 70.85C51.8986 70.8528 53.7875 70.8055 55.6458 70.7083C53.8125 73.0917 51.9167 75.2708 50.0417 77.2291C48.1417 75.268 46.2528 73.0944 44.375 70.7083Z" fill="#3F82FF"/>
</svg>
