<svg width="100" height="100" viewBox="0 0 100 100" fill="none" xmlns="http://www.w3.org/2000/svg">
<path d="M47.1625 74.0078C47.0687 74.2188 47.1156 74.125 47.1625 74.0078V74.0078ZM86.0891 57.0157C82.9464 57.0144 79.8457 57.9165 77.0266 59.6524C76.1047 57.3282 75.1516 55.2969 74.9953 53.7735C74.8078 51.9961 74.6047 50.9414 74.8234 48.8321C75.0422 46.7227 76.0266 43.7344 76.0109 43.5196C75.9953 43.3047 75.7922 42.2305 73.7766 42.211C71.7609 42.1914 70.0266 42.6992 69.825 43.3633C69.469 44.5769 69.1921 45.8244 68.9969 47.0938C68.6375 49.3789 64.9672 57.543 62.8891 61.8008C62.2016 60.1407 61.6234 58.6758 61.4984 57.5039C61.3109 55.7266 61.1078 54.6719 61.3266 52.5625C61.5453 50.4532 62.5297 47.4649 62.5141 47.25C62.4984 47.0352 62.2953 45.961 60.2812 45.9414C58.2672 45.9219 56.5312 46.4297 56.3281 47.0938C56.125 47.7578 55.9062 49.3203 55.5 50.8242C55.0937 52.3282 50.2047 65.9219 48.925 69.4571C48.2687 71.2539 47.7062 72.6992 47.3 73.6758C47.2375 73.8321 47.1906 73.9297 47.1594 74.0078C47.2062 73.9102 47.2375 73.8125 47.2375 73.8516C46.8937 74.6914 46.6906 75.1602 46.6906 75.1602V75.1797C46.425 75.8047 46.1281 76.3711 45.9875 76.3711C45.8937 76.3711 45.6906 74.7305 46.0344 72.4844C46.7687 67.7578 48.5031 60.4141 48.4875 60.1602C48.4719 60.0235 48.8156 58.7539 47.3469 58.0703C45.925 57.4258 45.4094 58.5 45.2844 58.5C45.1594 58.5 45.0656 58.8906 45.0656 58.8906C45.0656 58.8906 46.6437 50.6094 42.0359 50.6094C39.1609 50.6094 35.1609 54.5547 33.1953 58.1289C31.9609 58.9688 29.2891 60.7852 26.4766 62.7188C25.3984 63.461 24.2891 64.2227 23.2422 64.9453C23.1641 64.8477 23.1016 64.75 23.0234 64.6524C17.4312 57.1914 7.10624 51.918 7.54374 41.8985C7.69999 38.2461 8.71562 28.6563 27.3984 17.0157C42.7109 7.4844 54.9531 10.1016 57.0609 15.9219C60.0922 24.2227 50.5156 39.6719 34.6141 41.8985C28.5531 42.7383 25.3672 39.8086 24.5703 38.7149C23.7422 37.5625 23.6172 37.5039 23.3047 37.7188C22.7891 38.0703 23.1172 39.086 23.3047 39.6914C23.7734 41.2344 25.7266 43.9688 29.0531 45.336C31.975 46.5274 39.0812 47.1914 47.6734 43.0313C57.3266 38.3828 64.8406 25.4336 62.6375 14.5938C60.3937 3.57815 45.7812 -0.0351305 31.9641 6.09768C23.7312 9.75003 14.8281 15.4922 8.42343 22.9727C0.815618 31.8789 -0.40157 39.6328 0.0984301 42.875C1.87812 54.3789 14.5625 61.8789 19.6391 67.4258C19.3891 67.6016 19.1547 67.7578 18.9359 67.9141C16.3906 69.4961 6.7203 75.8242 4.29999 82.5039C1.56562 90.0821 4.75312 95.5117 6.84531 96.2539C13.375 98.5196 20.0609 94.4375 23.6531 87.7383C27.2453 81.0391 26.8094 72.2891 25.1531 68.3047C25.1375 68.2461 25.1062 68.2071 25.0906 68.1485C25.7469 67.6602 26.4187 67.1719 27.0906 66.6836C28.3859 65.7266 29.6516 64.8477 30.7609 64.086C30.1359 66.1953 29.6828 68.7344 29.4484 72.4063C29.1672 76.7031 30.5891 82.2696 32.4328 84.4571C33.2453 85.4141 34.2281 85.4336 34.8375 85.4336C36.9937 85.4336 37.9625 83.2071 39.0391 80.5508C40.3672 77.3086 41.5391 73.5391 41.5391 73.5391C41.5391 73.5391 40.0703 83.7344 44.0859 83.7344C45.5531 83.7344 47.0219 81.3711 47.6797 80.1602V80.1797C47.6797 80.1797 47.7109 80.1016 47.7891 79.9453C47.9453 79.6524 48.0234 79.4766 48.0234 79.4766V79.418C48.6172 78.1485 49.9141 75.2383 51.8656 70.4336C54.3969 64.2227 56.8172 56.4688 56.8172 56.4688C57.0511 58.1733 57.3747 59.8566 57.7859 61.5078C58.2234 63.3633 59.1453 65.3946 59.8797 67.3672C59.2859 68.3828 58.9266 68.9688 58.9266 68.9688C58.9277 68.9838 58.9333 68.9977 58.9422 69.0078C58.4734 69.7891 57.9422 70.6289 57.3953 71.4492C55.3969 74.418 53.0203 77.8164 52.7078 78.793C52.3328 79.9453 52.4266 80.8047 53.1453 81.4688C53.6766 81.9766 54.6141 82.0547 55.5969 81.9571C57.3937 81.8008 58.6594 81.2539 59.2687 80.9024C60.3921 80.3988 61.4539 79.702 62.4234 78.8321C64.3766 77.0352 65.5641 74.4571 65.4547 71.0586C65.3922 69.1836 64.9078 67.3086 64.314 65.5508C64.4859 65.2383 64.6734 64.9063 64.8453 64.5742C67.9375 58.9297 70.3281 52.7344 70.3281 52.7344C70.562 54.4389 70.8856 56.1222 71.2969 57.7735C71.6719 59.3555 72.4047 61.0938 73.0766 62.793C70.1719 65.7422 68.375 69.1602 67.75 71.4063C66.5937 75.5664 67.5 77.4414 69.2031 77.8711C69.9687 78.0664 71.0625 77.6172 71.875 77.1875C73.0817 76.6851 74.2194 75.9539 75.2484 75.0196C77.2016 73.2227 79.0906 70.7031 78.9656 67.2852C78.9187 65.7422 78.575 64.1992 78.1219 62.7149C80.575 61.4258 83.7609 60.7227 87.8234 61.3086C96.5234 62.5781 98.2266 69.375 97.8984 72.2071C97.5703 75.0391 95.7422 76.6211 95.1328 77.0899C94.5234 77.5586 94.3359 77.7344 94.3828 78.086C94.4609 78.5938 94.7422 78.5742 95.2578 78.4571C95.9766 78.3008 99.8187 76.1524 99.9906 70.8985C100.241 64.2578 95.1328 56.9531 86.0844 57.0117L86.0891 57.0157ZM19.0297 85.2774C16.1562 89.2031 12.125 90.6875 10.3922 89.4375C8.53281 88.086 9.26718 82.3086 12.8125 78.125C14.9687 75.586 17.7484 73.2422 19.5922 71.7969C20.0141 71.4844 20.6234 71.0157 21.3734 70.4492C21.4984 70.3516 21.5609 70.3125 21.5609 70.3125C21.7016 70.1953 21.8578 70.0977 22.0141 69.9805C23.3094 75.918 22.0609 81.1524 19.0297 85.2735V85.2774ZM40.0234 67.4258C39.0234 70.4922 36.9156 78.3047 35.6344 77.8946C34.5406 77.543 33.8687 71.586 35.4156 65.7266C36.1969 62.7774 37.8531 59.2617 38.8375 57.8946C40.4141 55.6875 42.1484 54.9844 42.5547 55.8633C43.1016 57.0156 40.6484 65.5117 40.0234 67.4258ZM57.3672 77.7774C56.9453 78.0508 56.5547 78.2266 56.3672 78.0899C56.2266 77.9922 56.5391 77.6211 56.5391 77.6211C56.5391 77.6211 58.7109 74.711 59.5703 73.3828C60.0703 72.6016 60.6484 71.6836 61.2719 70.668C61.2719 70.7657 61.2875 70.8633 61.2875 70.9805C61.2672 74.4766 58.5812 76.8399 57.3625 77.7774H57.3672ZM70.7391 73.9688C70.4266 73.6953 70.4734 72.7774 71.5203 69.9258C71.9266 68.8125 72.8625 66.9375 74.4891 65.1406C74.6732 65.8208 74.7733 66.5321 74.7859 67.25C74.7703 71.6446 72.2547 73.2852 70.7406 73.9688H70.7391Z" fill="#C837AB"/>
</svg>
