<svg width="178" height="22" viewBox="0 0 178 22" fill="none" xmlns="http://www.w3.org/2000/svg">
<path d="M18.3937 0C13.4876 0 10.4296 2.45982 9.21282 7.33241C11.0554 4.88228 13.2108 3.97887 15.6444 4.60005C17.035 4.94592 18.0474 5.9517 19.1543 7.09169C20.9621 8.92341 23.048 11.0374 27.6065 11.0374C32.5056 11.0374 35.565 8.57754 36.7817 3.70356C34.9406 6.15646 32.7837 7.05848 30.3502 6.4373C28.9595 6.09144 27.9541 5.08703 26.8402 3.94705C25.0324 2.11533 22.9451 0 18.3937 0ZM79.4722 0.659914V19.4392H82.2534V0.658531L79.4722 0.659914ZM74.8498 1.10816C73.8764 1.10816 73.0782 1.90227 73.0782 2.86932C73.0782 3.80455 73.8778 4.63602 74.8498 4.63602C75.8218 4.63602 76.6576 3.80593 76.6256 2.86932C76.6256 1.90227 75.8232 1.10816 74.8498 1.10816ZM106.834 1.10816C105.86 1.10816 105.062 1.90227 105.062 2.86932C105.062 3.80593 105.862 4.63602 106.834 4.63602C107.845 4.63602 108.642 3.80593 108.61 2.86932C108.61 1.90227 107.807 1.10816 106.834 1.10816ZM136.526 1.42083V8.3714C135.553 7.01975 134.022 6.19381 132.007 6.19381C128.491 6.19381 125.575 9.13369 125.575 12.9701C125.575 16.7746 128.491 19.7519 132.007 19.7519C134.022 19.7519 135.553 18.9218 136.526 17.5687V19.4392H139.308V1.42221L136.526 1.42083ZM51.9436 2.2855L49.1624 3.11282V6.5715H46.7942V9.23607H49.1624V15.4285C49.1624 18.7779 50.8645 19.958 55.1754 19.4392V16.9476C53.0519 17.0499 51.977 17.0873 51.977 15.4285V9.23607H55.1378V6.5715H51.9436V2.2855ZM62.8947 6.19381C59.3792 6.19381 56.4631 9.13369 56.4631 12.9701C56.4631 16.7746 59.3806 19.7519 62.8947 19.7519C64.9111 19.7519 66.4366 18.9218 67.4142 17.5687V19.4392H70.1954V6.5715H67.4142V8.37002C66.4352 7.01975 64.9097 6.19381 62.8947 6.19381ZM118.275 6.22563C116.536 6.22563 115.146 6.88555 114.276 8.26902V6.60886H111.495V19.471H114.276V12.5536C114.276 9.92781 115.737 8.857 117.579 8.857C119.317 8.857 120.463 9.85725 120.463 11.8301V19.4392H123.245V11.516C123.245 8.19847 121.159 6.22563 118.275 6.22563ZM148.657 6.22563C144.73 6.22563 141.812 9.16413 141.812 13.0074C141.812 16.812 144.768 19.7851 148.657 19.7851C151.2 19.7851 153.421 18.4708 154.464 16.4287L152.068 15.0826C151.436 16.2544 150.188 17.0499 148.623 17.0499C146.364 17.0499 144.625 15.3206 144.625 13.0074C144.625 10.6887 146.332 8.95938 148.623 8.95938C150.188 8.95938 151.475 9.72167 152.03 10.9322L154.43 9.54874C153.388 7.53855 151.2 6.22563 148.657 6.22563ZM160.998 6.26299C158.359 6.26299 156.272 7.78204 156.272 10.2031C156.272 14.8004 163.225 13.5276 163.225 15.8062C163.225 16.8438 162.285 17.2616 161.036 17.2616C159.606 17.2616 158.563 16.5699 158.152 15.3911L155.75 16.7746C156.586 18.6063 158.462 19.7851 161.036 19.7851C163.817 19.7851 166.077 18.3698 166.077 15.8076C166.077 11.0346 159.124 12.4526 159.124 10.1007C159.124 9.20148 159.994 8.74909 160.998 8.78644C162.08 8.78644 162.981 9.23469 163.432 10.2405L165.8 8.92202C164.892 7.23142 163.123 6.26299 160.998 6.26299ZM172.927 6.26299C170.281 6.26299 168.196 7.78204 168.196 10.2031C168.196 14.8004 175.149 13.5276 175.149 15.8062C175.149 16.8438 174.208 17.2616 172.959 17.2616C171.535 17.2616 170.492 16.5699 170.075 15.3911L167.675 16.7746C168.509 18.6063 170.384 19.7851 172.959 19.7851C175.74 19.7851 178 18.3698 178 15.8076C178 11.0346 171.047 12.4526 171.047 10.1007C171.047 9.20148 171.917 8.74909 172.927 8.78644C174.003 8.78644 174.904 9.23469 175.361 10.2405L177.725 8.92202C176.815 7.23142 175.045 6.26299 172.927 6.26299ZM73.4606 6.5715V19.4378H76.2418V6.5715H73.4606ZM84.3797 6.5715L88.4472 19.4378H91.1909L93.9026 10.7593L96.5795 19.4392H99.3288L103.396 6.5715H100.441L97.8965 15.4617L95.2265 6.5715H92.5495L89.8337 15.4617L87.3333 6.5715H84.3783H84.3797ZM105.445 6.5715V19.4378H108.226V6.5715H105.445ZM63.3077 8.8902C65.6384 8.8902 67.4142 10.6195 67.4142 13.0074C67.4142 15.3898 65.6384 17.1205 63.3077 17.1205C60.9826 17.1205 59.2443 15.3911 59.2054 13.0074C59.2054 10.6182 60.984 8.8902 63.3077 8.8902ZM132.425 8.8902C134.75 8.8902 136.526 10.6195 136.526 13.0074C136.526 15.3898 134.751 17.1205 132.424 17.1205C130.095 17.1205 128.318 15.3911 128.318 13.0074C128.318 10.6182 130.096 8.8902 132.425 8.8902ZM9.18222 10.9654C4.27614 10.9654 1.21818 13.4197 0 18.2978C1.84117 15.8408 3.99802 14.9429 6.43159 15.5641C7.8222 15.9099 8.83318 16.9157 9.94011 18.0543C11.7493 19.8874 13.8338 22 18.3923 22C23.2914 22 26.3507 19.5416 27.5675 14.6676C25.7264 17.1205 23.5695 18.0239 21.1359 17.3958C19.7453 17.0499 18.7413 16.0497 17.6274 14.9097C15.8516 13.0711 13.7657 10.9654 9.18222 10.9654Z" fill="#85B6FF"/>
</svg>
